<?xml version="1.0" encoding="UTF-8" standalone="no"?>
<!-- Created with Inkscape (http://www.inkscape.org/) -->

<svg
   width="24.94981mm"
   height="8.92768mm"
   viewBox="0 0 24.94981 8.92768"
   version="1.1"
   id="svg5"
   inkscape:version="1.1 (c68e22c387, 2021-05-23)"
   sodipodi:docname="bat.svg"
   xmlns:inkscape="http://www.inkscape.org/namespaces/inkscape"
   xmlns:sodipodi="http://sodipodi.sourceforge.net/DTD/sodipodi-0.dtd"
   xmlns="http://www.w3.org/2000/svg"
   xmlns:svg="http://www.w3.org/2000/svg">
  <sodipodi:namedview
     id="namedview7"
     pagecolor="#ffffff"
     bordercolor="#666666"
     borderopacity="1.0"
     inkscape:pageshadow="2"
     inkscape:pageopacity="0.0"
     inkscape:pagecheckerboard="0"
     inkscape:document-units="mm"
     showgrid="false"
     inkscape:zoom="0.66635802"
     inkscape:cx="26.262159"
     inkscape:cy="-176.33164"
     inkscape:window-width="1920"
     inkscape:window-height="1017"
     inkscape:window-x="1912"
     inkscape:window-y="-8"
     inkscape:window-maximized="1"
     inkscape:current-layer="layer1" />
  <defs
     id="defs2" />
  <g
     inkscape:label="Layer 1"
     inkscape:groupmode="layer"
     id="layer1"
     transform="translate(-97.90745,-131.72734)">
    <g
       id="g3213497"
       transform="translate(-174.43518,-83.635103)"
       style="display:inline">
      <g
         id="g3213489">
        <path
           style="fill:#98a0a4;fill-opacity:1;stroke:none;stroke-width:0.264583px;stroke-linecap:butt;stroke-linejoin:miter;stroke-opacity:1"
           d="m 286.92385,220.1332 0.44434,-2.26845 -0.18709,-2.10474 0.77174,0.0234 -0.4911,0.42094 0.0468,1.23947 0.46773,0.81851 v 0.49111 z"
           id="path3213439" />
        <path
           style="fill:#f7e2e6;fill-opacity:1;stroke:none;stroke-width:0.264583px;stroke-linecap:butt;stroke-linejoin:miter;stroke-opacity:1"
           d="m 286.92385,220.1332 0.46773,0.25725 1.21608,-1.77734 -0.68406,-1.17515 -0.14615,-0.90621 0.17539,-0.14617 1.63118,0.79513 0.90622,0.53788 -0.88283,-0.95298 -1.16197,-0.66718 -0.4926,-0.31502 -0.4911,0.42094 0.0468,1.23947 0.46773,0.81851 v 0.49111 l -1.0524,1.37976"
           id="path3213441" />
        <path
           style="fill:#f7e2e6;fill-opacity:1;stroke:none;stroke-width:0.264583px;stroke-linecap:butt;stroke-linejoin:miter;stroke-opacity:1"
           d="m 287.95284,215.78341 5.10987,0.88865 0.1637,-0.24555 -4.50184,-0.65481 z"
           id="path3213443" />
        <path
           style="fill:#436367;fill-opacity:1;stroke:none;stroke-width:0.264583px;stroke-linecap:butt;stroke-linejoin:miter;stroke-opacity:1"
           d="m 287.1811,215.76001 0.65482,-0.22217 1.8475,-0.1754 1.68379,0.0117 4.06918,0.0468 1.07577,0.47942 0.32383,0.32383 0.45645,0.63495 -0.31419,0.23151 -1.15755,0.0992 -0.69453,0.87644 -1.17409,-1.05834 -0.72567,-0.58143 -4.50184,-0.65481 z"
           id="path3213445" />
        <path
           style="fill:#2f484b;fill-opacity:1;stroke:none;stroke-width:0.264583px;stroke-linecap:butt;stroke-linejoin:miter;stroke-opacity:1"
           d="m 287.95284,215.78341 1.65457,0.9822 0.88283,0.95298 1.0558,1.48043 -0.1819,-0.65319 0.10747,-0.37207 0.33901,-0.13229 1.55443,-0.0165 1.19888,0.0661 0.56224,-0.0248 -1.89976,-1.63978 -0.1637,0.24555 -5.10987,-0.88865"
           id="path3213447" />
        <path
           style="fill:#426368;fill-opacity:1;stroke:none;stroke-width:0.264583px;stroke-linecap:butt;stroke-linejoin:miter;stroke-opacity:1"
           d="m 291.54604,219.19902 -0.61185,0.24805 -0.87643,-0.1571 -0.66974,0.41341 -0.78036,-1.09027 -0.68406,-1.17515 -0.14615,-0.90621 0.17539,-0.14617 1.63118,0.79513 0.90622,0.53788 1.0558,1.48043"
           id="path3213449" />
        <path
           style="fill:#d5c6a5;fill-opacity:1;stroke:none;stroke-width:0.264583px;stroke-linecap:butt;stroke-linejoin:miter;stroke-opacity:1"
           d="m 287.39158,220.39045 -0.55843,2.39698 0.78547,-0.28112 0.76895,-0.46302 0.47128,-0.5457 0.20672,-0.91778 -0.008,-0.37207 0.33073,-0.50436 -0.78037,-1.09027 v 0 l -1.21607,1.77734"
           id="path3213451" />
        <path
           style="fill:#191916;fill-opacity:1;stroke:none;stroke-width:0.264583px;stroke-linecap:butt;stroke-linejoin:miter;stroke-opacity:1"
           d="m 286.92387,220.1332 0.1637,-0.87697 -0.26895,0.10523 -0.66651,-0.17539 -0.77174,0.19878 -0.64312,0.21047 -0.28062,0.21048 -0.25725,0.53788 -0.11692,0.29232 0.93543,-0.23386 0.91205,-0.0468 0.99391,-0.22217"
           id="path3213453" />
        <path
           style="fill:#a39472;fill-opacity:1;stroke:none;stroke-width:0.264583px;stroke-linecap:butt;stroke-linejoin:miter;stroke-opacity:1"
           d="m 286.92385,220.1332 -0.79513,0.68989 -0.4794,0.71328 0.21048,0.29232 0.38587,0.0351 0.18708,0.52619 -0.16369,0.37418 -0.30404,0.35079 -0.24556,0.30402 -0.10522,0.29233 0.64312,-0.42095 0.57579,-0.5029 0.55843,-2.39698 -0.46771,-0.25725"
           id="path3213455" />
        <path
           style="opacity:1;fill:#cacbca;fill-opacity:1;stroke:none;stroke-width:0.264583px;stroke-linecap:butt;stroke-linejoin:miter;stroke-opacity:1"
           d="m 285.29851,222.67059 0.31573,-0.4911 0.24556,-0.3508 0.38587,0.0351 0.18708,0.52619 -0.16369,0.37418 -0.5496,0.65481 z"
           id="path3213457" />
        <path
           style="fill:#444637;fill-opacity:1;stroke:none;stroke-width:0.264583px;stroke-linecap:butt;stroke-linejoin:miter;stroke-opacity:1"
           d="m 285.71946,223.41897 -0.15785,-0.68407 0.14031,-0.38587 0.31573,-0.35079 0.152,0.0935 v 0.47941 l 0.0994,0.19296 -0.5496,0.65481"
           id="path3213459" />
        <path
           style="fill:#6e6443;fill-opacity:1;stroke:none;stroke-width:0.264583px;stroke-linecap:butt;stroke-linejoin:miter;stroke-opacity:1"
           d="m 285.61424,223.7113 -0.42095,-0.30989 -0.46773,-0.15201 -0.54372,0.0468 -0.18709,0.32741 0.10523,0.10523 0.0116,0.32156 0.29234,0.22802 0.68405,0.0117 0.22214,-0.23971 0.30404,-0.33907"
           id="path3213461" />
        <path
           style="fill:#b8847d;fill-opacity:1;stroke:none;stroke-width:0.264583px;stroke-linecap:butt;stroke-linejoin:miter;stroke-opacity:1"
           d="m 284.83665,224.05622 0.30401,-0.29817 -0.28646,-0.34495 -0.36248,-0.006 -0.25726,0.16371 0.0292,0.35663 z"
           id="path3213463" />
        <path
           style="fill:#cacbca;fill-opacity:1;stroke:none;stroke-width:0.264583px;stroke-linecap:butt;stroke-linejoin:miter;stroke-opacity:1"
           d="m 283.99475,223.62361 -0.21632,-0.22805 v -0.56711 c 0,0 -0.006,-0.0877 -0.0233,-0.11108 -0.0175,-0.0234 -0.28646,-0.28649 -0.28646,-0.28649 l -0.22217,-0.52034 -0.0233,-0.37417 0.22217,0.11108 0.0468,0.39172 0.228,0.36248 0.14033,0.2631 -0.0233,0.39171 0.15785,0.56715"
           id="path3213465" />
        <path
           style="fill:#25200e;fill-opacity:1;stroke:none;stroke-width:0.264583px;stroke-linecap:butt;stroke-linejoin:miter;stroke-opacity:1"
           d="m 283.44537,221.64745 0.53769,0.18709 0.0585,0.5028 -0.18103,0.32741 -0.14033,-0.2631 -0.228,-0.36248 -0.0468,-0.39172"
           id="path3213467" />
        <path
           style="fill:#aa9d9a;fill-opacity:1;stroke:none;stroke-width:0.264583px;stroke-linecap:butt;stroke-linejoin:miter;stroke-opacity:1"
           d="m 283.86053,222.66475 0.6487,0.0994 0.78928,-0.0935 0.42093,0.74833 -0.1052,0.29238 -0.42095,-0.30989 -0.46773,-0.15201 -0.54372,0.0468 -0.1868,0.32741 -0.15785,-0.56715 0.0233,-0.39171"
           id="path3213469" />
        <path
           style="fill:#231d0f;fill-opacity:1;stroke:none;stroke-width:0.264583px;stroke-linecap:butt;stroke-linejoin:miter;stroke-opacity:1"
           d="m 285.8598,221.82869 h -0.41511 l -0.18708,0.23387 -0.26895,0.36248 -0.0979,0.29671 0.40777,-0.0511 0.56129,-0.84196"
           id="path3213471" />
        <path
           style="fill:#746f50;fill-opacity:1;stroke:none;stroke-width:0.264583px;stroke-linecap:butt;stroke-linejoin:miter;stroke-opacity:1"
           d="m 285.64932,221.53637 -0.76007,-0.18709 -0.45601,0.0351 -0.5788,0.14031 -0.63124,0.0117 0.75986,0.29817 0.0585,0.5028 -0.18103,0.32741 0.6487,0.0994 0.38153,-0.0424 0.0979,-0.29671 0.45603,-0.59635 h 0.41511 z"
           id="path3213473" />
        <path
           style="fill:#8a7e5f;fill-opacity:1;stroke:none;stroke-width:0.264583px;stroke-linecap:butt;stroke-linejoin:miter;stroke-opacity:1"
           d="m 283.2232,221.53637 0.49091,-0.21048 0.28649,-0.45018 0.0819,-0.23971 0.93543,-0.23386 0.91205,-0.0468 0.99391,-0.22214 -0.79513,0.68989 -0.4794,0.71328 -0.76007,-0.18709 -1.03481,0.17541 -0.63124,0.0117"
           id="path3213475" />
        <path
           style="fill:#a98b90;fill-opacity:1;stroke:none;stroke-width:0.264583px;stroke-linecap:butt;stroke-linejoin:miter;stroke-opacity:1"
           d="m 284.08249,220.636 -0.62281,-1.27161 -0.60356,-0.81856 -2.10842,-1.38079 -1.03351,-0.33073 -0.47956,0.24804 -0.1819,-0.49609 0.30591,-0.0827 1.1493,0.14056 1.77766,1.03353 0.95911,0.5457 0.66146,0.37207 0.31419,0.81029 0.23627,0.40007 -0.37414,0.8302"
           id="path3213477" />
        <path
           style="fill:#171718;fill-opacity:1;stroke:none;stroke-width:0.264583px;stroke-linecap:butt;stroke-linejoin:miter;stroke-opacity:1"
           d="m 284.45663,219.8058 0.28062,-0.21048 -0.37632,-0.65261 -0.38862,-0.55398 -1.08312,-0.85989 -0.89297,-0.14883 -1.48828,-0.73589 3.39823,1.9513 0.55046,1.21036"
           id="path3213479" />
        <path
           style="fill:#325357;fill-opacity:1;stroke:none;stroke-width:0.264583px;stroke-linecap:butt;stroke-linejoin:miter;stroke-opacity:1"
           d="m 282.85612,218.54583 -0.94859,-0.0263 -0.86526,0.30402 -0.26895,0.22217 -1.05913,-2.21144 1.03351,0.33073 2.10842,1.38079"
           id="path3213481" />
        <path
           style="fill:#456670;fill-opacity:1;stroke:none;stroke-width:0.264583px;stroke-linecap:butt;stroke-linejoin:miter;stroke-opacity:1"
           d="m 280.77332,219.04572 -1.05238,-0.60801 -0.86527,-0.10524 0.37896,-1.25012 0.47956,-0.24804 z"
           id="path3213483" />
        <path
           style="fill:#5f838e;fill-opacity:1;stroke:none;stroke-width:0.264583px;stroke-linecap:butt;stroke-linejoin:miter;stroke-opacity:1"
           d="m 278.85567,218.33247 -3.28576,-0.0234 -0.47942,0.19878 -0.83021,0.12862 c 0,0 0.91207,-1.06406 0.79513,-0.87697 -0.11692,0.18708 1.07577,-0.92375 1.07577,-0.92375 l 0.86529,-0.24556 0.99391,-0.0935 1.06235,0.0896 0.1819,0.49609 -0.37896,1.25012"
           id="path3213485" />
        <path
           style="fill:#678794;fill-opacity:1;stroke:none;stroke-width:0.264583px;stroke-linecap:butt;stroke-linejoin:miter;stroke-opacity:1"
           d="m 274.26028,218.63647 -0.72496,-0.8068 -0.73665,-0.31571 -0.45604,-0.25725 0.53787,-0.91205 1.47334,-0.43265 1.98781,-0.11693 2.1749,0.32741 1.99139,0.52163 -1.1493,-0.14056 -0.30591,0.0827 -1.06235,-0.0896 -0.99391,0.0935 -0.86529,0.24556 z"
           id="path3213487" />
      </g>
      <path
         style="fill:#426368;fill-opacity:1;stroke:none;stroke-width:0.264583px;stroke-linecap:butt;stroke-linejoin:miter;stroke-opacity:1"
         d="m 295.12617,218.06627 c 0,0 -0.98187,-0.83879 -1.02278,-0.83879 -0.0409,0 -0.87698,-0.80096 -0.87698,-0.80096 l 0.96467,0.70742 z"
         id="path3213491" />
      <path
         style="fill:#325357;fill-opacity:1;stroke:none;stroke-width:0.264583px;stroke-linecap:butt;stroke-linejoin:miter;stroke-opacity:1"
         d="m 284.45663,219.8058 -0.23627,-0.40009 -0.31419,-0.81029 0.55046,1.21038"
         id="path3213493" />
      <path
         style="fill:#325357;fill-opacity:1;stroke:none;stroke-width:0.264583px;stroke-linecap:butt;stroke-linejoin:miter;stroke-opacity:1"
         d="m 283.90617,218.59542 -1.6991,-0.93016 -1.69913,-1.02114 2.01332,1.07489 1.38491,0.87641"
         id="path3213495" />
    </g>
  </g>
</svg>
