<?xml version="1.0" encoding="UTF-8" standalone="no"?>
<!-- Created with Inkscape (http://www.inkscape.org/) -->

<svg
   width="193.81119mm"
   height="284.69168mm"
   viewBox="0 0 193.81119 284.69168"
   version="1.1"
   id="svg5"
   inkscape:version="1.1 (c68e22c387, 2021-05-23)"
   sodipodi:docname="cliff-left.svg"
   xmlns:inkscape="http://www.inkscape.org/namespaces/inkscape"
   xmlns:sodipodi="http://sodipodi.sourceforge.net/DTD/sodipodi-0.dtd"
   xmlns="http://www.w3.org/2000/svg"
   xmlns:svg="http://www.w3.org/2000/svg">
  <sodipodi:namedview
     id="namedview7"
     pagecolor="#ffffff"
     bordercolor="#666666"
     borderopacity="1.0"
     inkscape:pageshadow="2"
     inkscape:pageopacity="0.0"
     inkscape:pagecheckerboard="0"
     inkscape:document-units="mm"
     showgrid="false"
     inkscape:zoom="0.66635802"
     inkscape:cx="354.91431"
     inkscape:cy="137.31357"
     inkscape:window-width="1920"
     inkscape:window-height="1017"
     inkscape:window-x="1912"
     inkscape:window-y="-8"
     inkscape:window-maximized="1"
     inkscape:current-layer="layer1" />
  <defs
     id="defs2" />
  <g
     inkscape:label="Layer 1"
     inkscape:groupmode="layer"
     id="layer1"
     transform="translate(-11.094407,-17.27181)">
    <g
       id="g395506"
       style="display:inline"
       transform="translate(8.8493428,-312.6636)">
      <path
         style="fill:#3c3d46;fill-opacity:1;stroke:none;stroke-width:0.264583px;stroke-linecap:butt;stroke-linejoin:miter;stroke-opacity:1"
         d="m 90.752082,613.56874 -3.175,-30.95625 9.525,-32.27916 4.497918,-52.3875 1.05833,-64.29375 26.9875,32.80833 -1.5875,106.09792 -13.22916,42.06875 z"
         id="path1823289" />
      <path
         style="fill:#2d2b31;fill-opacity:1;stroke:none;stroke-width:0.264583px;stroke-linecap:butt;stroke-linejoin:miter;stroke-opacity:1"
         d="m 114.82917,614.62708 15.08125,-0.26459 8.99583,-34.66041 -1.05834,-100.0125 -8.20208,-13.22917 -1.5875,106.09792 -13.22916,42.06875"
         id="path1827107" />
      <path
         style="fill:#020106;fill-opacity:1;stroke:none;stroke-width:0.264583px;stroke-linecap:butt;stroke-linejoin:miter;stroke-opacity:1"
         d="m 152.66458,489.47916 7.14375,30.69167 -8.20208,12.96458 3.43958,22.225 3.43958,10.84792 4.23334,-17.72709 3.175,6.08542 11.37708,-16.66875 -1.32292,-11.64167 3.175,-7.14375 -5.55625,-11.90625 z"
         id="path1831627" />
      <path
         style="fill:#020106;fill-opacity:1;stroke:none;stroke-width:0.264583px;stroke-linecap:butt;stroke-linejoin:miter;stroke-opacity:1"
         d="m 76.199999,569.91249 -19.579166,-18.52083 8.202083,-17.99167 11.641666,-0.26458 5.55625,0.79375 v 20.90208 z"
         id="path1838838" />
      <path
         style="fill:#74685b;fill-opacity:1;stroke:none;stroke-width:0.264583px;stroke-linecap:butt;stroke-linejoin:miter;stroke-opacity:1"
         d="m 76.199999,569.91249 -3.96875,18.52084 2.645833,23.28333 15.874998,1.85208 -3.175,-30.95625 -11.377081,-12.7"
         id="path1843592" />
      <path
         style="fill:#403630;fill-opacity:1;stroke:none;stroke-width:0.264583px;stroke-linecap:butt;stroke-linejoin:miter;stroke-opacity:1"
         d="m 82.02083,533.92916 15.081249,16.40417 -9.524999,32.27916 -11.377081,-12.7 5.820831,-15.08125 v -20.90208"
         id="path1859298" />
      <path
         style="fill:#b2a087;fill-opacity:1;stroke:none;stroke-width:0.264583px;stroke-linecap:butt;stroke-linejoin:miter;stroke-opacity:1"
         d="m 82.02083,533.92916 -0.07599,-20.55786 2.245064,-17.02506 7.670636,-11.97367 1.683797,20.76683 3.557746,45.19393 -15.081249,-16.40417"
         id="path1864754" />
      <path
         style="fill:#36383e;fill-opacity:1;stroke:none;stroke-width:0.264583px;stroke-linecap:butt;stroke-linejoin:miter;stroke-opacity:1"
         d="m 72.231249,588.43333 -14.233763,-19.68379 -6.735191,-3.55467 -13.470384,16.08963 -2.80633,29.55999 39.891499,0.87217 -2.645831,-23.28333"
         id="path1869352" />
      <path
         style="fill:#464749;fill-opacity:1;stroke:none;stroke-width:0.264583px;stroke-linecap:butt;stroke-linejoin:miter;stroke-opacity:1"
         d="m 72.231249,588.43333 3.96875,-18.52084 -19.579166,-18.52083 -5.358538,13.80321 6.735191,3.55467 z"
         id="path1872390" />
      <path
         style="fill:#645e57;fill-opacity:1;stroke:none;stroke-width:0.264583px;stroke-linecap:butt;stroke-linejoin:miter;stroke-opacity:1"
         d="M 34.985581,610.84449 23.011906,585.77461 2.4321527,559.58221 2.245064,610.28323 l 32.740517,0.56126"
         id="path1886687" />
      <path
         style="fill:#14514b;fill-opacity:1;stroke:none;stroke-width:0.264583px;stroke-linecap:butt;stroke-linejoin:miter;stroke-opacity:1"
         d="M 37.791911,581.2845 21.702285,544.9893 2.6192413,503.82979 l -0.1870886,55.75242 20.5797533,26.1924 11.973675,25.06988 z"
         id="path1891207" />
      <path
         style="fill:#7e7b6e;fill-opacity:1;stroke:none;stroke-width:0.264583px;stroke-linecap:butt;stroke-linejoin:miter;stroke-opacity:1"
         d="M 51.262295,565.19487 37.791911,467.16039 20.439062,542.39583 37.791911,581.2845 Z"
         id="path1895922" />
      <path
         style="fill:#0c606d;fill-opacity:1;stroke:none;stroke-width:0.264583px;stroke-linecap:butt;stroke-linejoin:miter;stroke-opacity:1"
         d="m 84.189902,496.34624 -10.851144,10.47697 -15.902538,4.30302 -6.173925,54.06864 5.358538,-13.80321 8.202083,-17.99167 11.641664,-0.26458 5.556252,0.79375 -0.07599,-20.55786 2.245063,-17.02506"
         id="path1899818" />
      <path
         style="fill:#1e2628;fill-opacity:1;stroke:none;stroke-width:0.264583px;stroke-linecap:butt;stroke-linejoin:miter;stroke-opacity:1"
         d="m 51.262295,565.19487 -13.470384,-98.03448 10.102789,-4.11594 17.960512,-0.18708 15.902535,10.66406 10.102791,10.85114 -7.670633,11.97367 -10.851147,10.47697 -15.902538,4.30302 -6.173925,54.06864"
         id="path1906834" />
      <path
         style="fill:#696461;fill-opacity:1;stroke:none;stroke-width:0.264583px;stroke-linecap:butt;stroke-linejoin:miter;stroke-opacity:1"
         d="m 97.102077,550.33333 -5.241539,-65.96076 1.870885,-64.35852 8.926907,13.63803 -1.05833,64.29375 -4.497923,52.3875"
         id="path1911900" />
      <path
         style="fill:#1e2628;fill-opacity:1;stroke:none;stroke-width:0.264583px;stroke-linecap:butt;stroke-linejoin:miter;stroke-opacity:1"
         d="M 37.791911,467.16039 2.6458333,394.22916 2.6192413,503.82979 20.439062,542.39583 37.791911,467.16039"
         id="path1926808" />
      <path
         style="fill:#14514b;fill-opacity:1;stroke:none;stroke-width:0.264583px;stroke-linecap:butt;stroke-linejoin:miter;stroke-opacity:1"
         d="M 2.6458333,394.22916 2.38125,329.93541 l 14.816666,14.55209 17.4625,7.67291 27.516667,12.43542 13.229166,11.64167 15.08125,9.26041 -8.202083,14.81667 -31.75,2.64583 -12.743505,64.19998 -35.1460777,-72.93123"
         id="path1932303" />
      <path
         style="fill:#0c606d;fill-opacity:1;stroke:none;stroke-width:0.264583px;stroke-linecap:butt;stroke-linejoin:miter;stroke-opacity:1"
         d="m 37.791911,467.16039 12.743505,-64.19998 31.75,-2.64583 8.202083,-14.81667 24.077081,17.4625 24.87083,24.34167 v 12.7 l -9.78958,26.45833 -26.9875,-32.80833 -8.926907,-13.63803 -1.870885,64.35852 -10.102791,-10.85114 -15.902535,-10.66406 -17.960512,0.18708 -10.102789,4.11594"
         id="path1936082" />
      <path
         style="fill:#6f947d;fill-opacity:1;stroke:none;stroke-width:0.264583px;stroke-linecap:butt;stroke-linejoin:miter;stroke-opacity:1"
         d="m 139.43541,427.30208 5.29167,15.875 6.08542,13.49375 -3.175,20.37291 -9.78959,2.64584 -8.20208,-13.22917 9.78958,-26.45833 v -12.7"
         id="path1945291" />
      <path
         style="fill:#746a65;fill-opacity:1;stroke:none;stroke-width:0.264583px;stroke-linecap:butt;stroke-linejoin:miter;stroke-opacity:1"
         d="m 129.91042,614.36249 23.28333,-1.85208 -3.43959,-32.54375 1.85209,-46.83125 -3.96875,-56.09167 -9.78959,2.64584 1.05834,100.0125 -8.99583,34.66041"
         id="path1952034" />
      <path
         style="fill:#787168;fill-opacity:1;stroke:none;stroke-width:0.264583px;stroke-linecap:butt;stroke-linejoin:miter;stroke-opacity:1"
         d="m 179.12291,519.11249 15.08125,24.34167 1.85209,24.87083 -1.05834,34.39584 -2.38125,7.9375 -39.42291,1.85208 -3.43959,-32.54375 8.73125,-13.75833 4.23334,-17.72709 3.175,6.08542 11.37708,-16.66875 -1.32292,-11.64167 z"
         id="path1957802" />
      <path
         style="fill:#555057;fill-opacity:1;stroke:none;stroke-width:0.264583px;stroke-linecap:butt;stroke-linejoin:miter;stroke-opacity:1"
         d="m 149.75416,579.96666 8.73125,-13.75833 -3.43958,-10.84792 -3.43958,-22.225 -1.85209,46.83125"
         id="path1963620" />
      <path
         style="fill:#14514b;fill-opacity:1;stroke:none;stroke-width:0.264583px;stroke-linecap:butt;stroke-linejoin:miter;stroke-opacity:1"
         d="m 194.20416,543.45416 -6.87916,-29.76562 -11.24479,-14.02292 -9.92188,-13.49375 -9.78958,-21.96042 -5.55625,-7.54062 -3.175,20.37291 5.02708,12.43542 20.90208,17.72708 5.55625,11.90625 15.08125,24.34167"
         id="path1967750" />
      <path
         style="fill:#393b46;fill-opacity:1;stroke:none;stroke-width:0.264583px;stroke-linecap:butt;stroke-linejoin:miter;stroke-opacity:1"
         d="m 151.60625,533.13541 8.20208,-12.96458 -7.14375,-30.69167 -5.02708,-12.43542 3.96875,56.09167"
         id="path1972309" />
    </g>
  </g>
</svg>
