<?xml version="1.0" encoding="UTF-8" standalone="no"?>
<!-- Created with Inkscape (http://www.inkscape.org/) -->

<svg
   width="267.46887mm"
   height="268.25119mm"
   viewBox="0 0 267.46887 268.25119"
   version="1.1"
   id="svg5"
   inkscape:version="1.1 (c68e22c387, 2021-05-23)"
   sodipodi:docname="cliff-right.svg"
   xmlns:inkscape="http://www.inkscape.org/namespaces/inkscape"
   xmlns:sodipodi="http://sodipodi.sourceforge.net/DTD/sodipodi-0.dtd"
   xmlns="http://www.w3.org/2000/svg"
   xmlns:svg="http://www.w3.org/2000/svg">
  <sodipodi:namedview
     id="namedview7"
     pagecolor="#ffffff"
     bordercolor="#666666"
     borderopacity="1.0"
     inkscape:pageshadow="2"
     inkscape:pageopacity="0.0"
     inkscape:pagecheckerboard="0"
     inkscape:document-units="mm"
     showgrid="false"
     inkscape:zoom="0.66635802"
     inkscape:cx="450.95878"
     inkscape:cy="320.39833"
     inkscape:window-width="1920"
     inkscape:window-height="1017"
     inkscape:window-x="1912"
     inkscape:window-y="-8"
     inkscape:window-maximized="1"
     inkscape:current-layer="layer1" />
  <defs
     id="defs2" />
  <g
     inkscape:label="Layer 1"
     inkscape:groupmode="layer"
     id="layer1"
     transform="translate(14.21973,-32.24205)">
    <g
       id="g444531"
       style="display:inline"
       transform="translate(-116.76797,-322.78695)">
      <path
         style="fill:#14514b;fill-opacity:1;stroke:none;stroke-width:0.264583px;stroke-linecap:butt;stroke-linejoin:miter;stroke-opacity:1"
         d="m 266.1371,465.90637 -13.53993,-7.99076 -13.98385,-2.88554 -21.75266,7.54681 -10.43239,-3.55145 5.54915,-7.32485 -7.10291,-8.43471 -13.09599,-1.99771 0.6659,-6.43699 -16.42548,-4.6613 -15.53761,4.43934 7.32488,-5.99311 h 7.7688 l 17.31334,-9.98844 9.98846,0.88786 26.41395,-3.32949 22.86248,-3.32949 29.52146,-4.43931 7.54684,14.42778 -7.1029,9.98845 -4.66129,10.87633 -0.66591,6.21506 -7.1029,8.21272 z"
         id="path1598134" />
      <path
         style="fill:#404c4b;fill-opacity:1;stroke:none;stroke-width:0.264583px;stroke-linecap:butt;stroke-linejoin:miter;stroke-opacity:1"
         d="m 175.57501,428.6161 -0.33295,-7.43585 4.88325,0.22196 -0.88786,-5.10521 1.77573,-0.22196 2.44162,-2.21964 3.8844,-0.111 2.99654,3.10754 2.55261,1.77572 6.21505,-1.10983 2.10867,-2.99654 6.43701,0.44393 7.10291,-0.44393 5.66013,0.44393 0.55492,2.44163 -18.09023,2.10867 -9.98846,-0.88786"
         id="path1606415" />
      <path
         style="fill:#5b4c43;fill-opacity:1;stroke:none;stroke-width:0.264583px;stroke-linecap:butt;stroke-linejoin:miter;stroke-opacity:1"
         d="m 122.85812,477.78156 5.32718,1.10982 3.32948,27.63475 4.10637,7.32489 3.32949,15.64859 -1.55376,4.77226 2.10868,12.76305 -4.88325,12.20812 -9.1006,1.10982 -7.76881,-12.87402 1.99769,-7.99076 -2.77457,-6.43702 6.43701,-12.98501 0.44393,-5.66012 z"
         id="path1617538" />
      <path
         style="fill:#216d6c;fill-opacity:1;stroke:none;stroke-width:0.264583px;stroke-linecap:butt;stroke-linejoin:miter;stroke-opacity:1"
         d="m 135.62115,513.85102 7.87979,-6.88094 6.10406,-2.33064 5.43817,-4.77229 6.88094,-1.22079 4.88325,0.55491 1.99769,-5.66012 0.99885,-5.77112 -4.5503,-1.22081 -6.43701,4.5503 -7.21389,2.99654 -3.44047,-0.44394 -3.77342,3.10753 -7.65783,1.99768 -5.2162,7.7688 4.10637,7.32489"
         id="path1626936" />
      <path
         style="fill:#112642;fill-opacity:1;stroke:none;stroke-width:0.264583px;stroke-linecap:butt;stroke-linejoin:miter;stroke-opacity:1"
         d="m 122.85812,477.78156 -2.33065,-2.44163 5.66013,-9.43356 4.77227,-2.77455 5.43817,-8.65669 6.10405,-6.32603 4.32834,-0.66588 6.32603,-10.09946 7.32487,-2.77455 15.53761,-4.43934 16.42548,4.6613 -0.6659,6.43699 13.09599,1.99771 7.10291,8.43471 -5.54915,7.32485 -8.54569,13.76191 -1.88671,10.9873 3.55146,11.76419 -2.10868,4.88326 -7.43585,9.54453 -23.19544,-10.76535 2.99654,-11.43124 -4.5503,-1.22081 -6.43701,4.5503 -7.21389,2.99654 -3.44047,-0.44394 -3.77342,3.10753 -7.65783,1.99768 -5.2162,7.7688 -3.32948,-27.63475 -5.32718,-1.10982"
         id="path1637843" />
      <path
         style="fill:#101c31;fill-opacity:1;stroke:none;stroke-width:0.264583px;stroke-linecap:butt;stroke-linejoin:miter;stroke-opacity:1"
         d="m 116.97602,533.05106 -5.54915,9.21158 -6.21504,7.99078 -2.66359,8.87863 5.77111,8.87864 4.66128,35.51455 3.99539,12.43007 1.10983,-12.20811 0.44393,-19.533 -1.55376,-11.76419 8.54569,-12.09715 -7.76881,-12.87402 1.99769,-7.99076 -2.77457,-6.43702"
         id="path1647458" />
      <path
         style="fill:#22242e;fill-opacity:1;stroke:none;stroke-width:0.264583px;stroke-linecap:butt;stroke-linejoin:miter;stroke-opacity:1"
         d="m 116.97602,615.95531 26.19197,-0.22196 0.22197,-10.43239 -7.10291,-11.09829 -1.99769,-17.53531 0.33295,-17.42432 -9.1006,1.10982 -8.54569,12.09715 1.55376,11.76419 -0.44393,19.533 z"
         id="path1652758" />
      <path
         style="fill:#0a1e3b;fill-opacity:1;stroke:none;stroke-width:0.264583px;stroke-linecap:butt;stroke-linejoin:miter;stroke-opacity:1"
         d="m 143.16799,615.73335 12.20813,-0.6659 -4.43932,-10.65435 -1.55376,-13.53992 2.44162,-17.53531 2.66359,-15.98155 4.43932,-12.87402 4.88325,-9.98847 11.32026,-16.64742 14.87172,-7.87979 -23.19544,-10.76535 -11.76419,0.66588 -5.43817,4.77229 -6.10406,2.33064 -7.87979,6.88094 3.32949,15.64859 -1.55376,4.77226 2.10868,12.76305 -4.88325,12.20812 -0.33295,17.42432 1.99769,17.53531 7.10291,11.09829 -0.22197,10.43239"
         id="path1655406" />
      <path
         style="fill:#17273f;fill-opacity:1;stroke:none;stroke-width:0.264583px;stroke-linecap:butt;stroke-linejoin:miter;stroke-opacity:1"
         d="m 155.37612,615.06745 h 40.17582 l -15.53761,-21.75264 2.44163,-25.30412 6.65897,-8.87864 6.88094,-9.54453 8.43471,-17.97923 5.10521,-10.43239 -19.53299,-11.20928 -14.87172,7.87979 -11.32026,16.64742 -9.32257,22.86249 -5.10521,33.51686 1.55376,13.53992 4.43932,10.65435"
         id="path1661486" />
      <path
         style="fill:#18202b;fill-opacity:1;stroke:none;stroke-width:0.264583px;stroke-linecap:butt;stroke-linejoin:miter;stroke-opacity:1"
         d="m 154.48825,557.35632 4.43932,-12.87402 4.88325,-9.98847 -9.32257,22.86249"
         id="path1668618" />
      <path
         style="fill:#302f36;fill-opacity:1;stroke:none;stroke-width:0.264583px;stroke-linecap:butt;stroke-linejoin:miter;stroke-opacity:1"
         d="m 182.45596,568.01069 13.53991,-18.42317 24.36695,-0.87781 34.52979,3.45297 -1.25562,9.41724 -8.78941,11.61454 -6.27814,14.75365 -0.62781,26.36821 -42.38969,0.75113 -15.53761,-21.75264 2.44163,-25.30412"
         id="path1682107" />
      <path
         style="fill:#1c2b3b;fill-opacity:1;stroke:none;stroke-width:0.264583px;stroke-linecap:butt;stroke-linejoin:miter;stroke-opacity:1"
         d="m 254.89261,552.16268 16.63709,-10.35891 -5.02253,-8.47551 -18.83442,7.84768 -27.62383,-3.76687 -10.51313,-16.23317 -13.53992,28.41162 z"
         id="path1692116" />
      <path
         style="fill:#091725;fill-opacity:1;stroke:none;stroke-width:0.264583px;stroke-linecap:butt;stroke-linejoin:miter;stroke-opacity:1"
         d="m 209.53579,521.1759 40.96212,1.32257 2.98212,-27.93775 6.59205,-10.98674 12.39933,26.68212 -5.96424,23.07216 -18.83442,7.84768 -27.62383,-3.76687 -10.51313,-16.23317"
         id="path1698510" />
      <path
         style="fill:#4e4945;fill-opacity:1;stroke:none;stroke-width:0.264583px;stroke-linecap:butt;stroke-linejoin:miter;stroke-opacity:1"
         d="m 216.86066,462.57688 -3.87465,14.24811 -3.76689,11.14369 c 0,0 8.31854,3.45297 8.63245,4.70861 0.31391,1.25563 -6.12119,15.06754 -6.12119,15.06754 l -2.19459,13.43107 -19.53299,-11.20928 7.43585,-9.54453 2.10868,-4.88326 -3.55146,-11.76419 1.88671,-10.9873 8.54569,-13.76191 10.43239,3.55145"
         id="path1702562" />
      <path
         style="fill:#1f2d3e;fill-opacity:1;stroke:none;stroke-width:0.264583px;stroke-linecap:butt;stroke-linejoin:miter;stroke-opacity:1"
         d="m 216.86066,462.57688 21.75266,-7.54681 13.98385,2.88554 13.53993,7.99076 -7.16369,8.09345 1.09867,9.57416 -6.59205,10.98674 -2.98212,27.93775 -40.96212,-1.32257 2.19459,-13.43107 6.12119,-14.43974 -8.63245,-5.33641 7.64154,-25.3918"
         id="path1706497" />
      <path
         style="fill:#363130;fill-opacity:1;stroke:none;stroke-width:0.264583px;stroke-linecap:butt;stroke-linejoin:miter;stroke-opacity:1"
         d="m 266.1371,465.90637 4.45087,18.45239 12.24238,14.43971 -10.35894,11.45763 -12.39933,-26.68212 -1.09867,-9.57416 7.16369,-8.09345"
         id="path1709847" />
      <path
         style="fill:#216d6c;fill-opacity:1;stroke:none;stroke-width:0.264583px;stroke-linecap:butt;stroke-linejoin:miter;stroke-opacity:1"
         d="m 289.22154,422.84501 27.19687,-6.2902 26.99602,3.13907 26.36821,-2.19737 V 355.029 l -19.14834,10.67284 -10.98675,12.55628 -19.77615,5.02253 -20.71788,13.81191 -17.47882,11.32467 z"
         id="path1717379" />
      <path
         style="fill:#1a1f2c;fill-opacity:1;stroke:none;stroke-width:0.264583px;stroke-linecap:butt;stroke-linejoin:miter;stroke-opacity:1"
         d="m 282.83035,498.79847 25.42648,2.19737 0.94173,8.16157 -14.75364,11.92848 -10.04504,8.7894 -12.87018,11.92848 -5.02253,-8.47551 5.96424,-23.07216 10.35894,-11.45763"
         id="path1723653" />
      <path
         style="fill:#0d203b;fill-opacity:1;stroke:none;stroke-width:0.264583px;stroke-linecap:butt;stroke-linejoin:miter;stroke-opacity:1"
         d="m 308.25683,500.99584 2.35432,-10.82982 -8.00466,-8.47548 -5.6503,-17.26491 -8.78941,-24.0139 1.05476,-17.56672 -7.1029,9.98845 -4.66129,10.87633 -0.66591,6.21506 -7.1029,8.21272 -3.55144,7.7688 4.45087,18.45239 12.24238,14.43971 25.42648,2.19737"
         id="path1732954" />
      <path
         style="fill:#2c3033;fill-opacity:1;stroke:none;stroke-width:0.264583px;stroke-linecap:butt;stroke-linejoin:miter;stroke-opacity:1"
         d="m 310.61115,490.16602 3.45297,-11.30065 -8.16161,-13.96886 -4.08077,-14.91059 -12.6002,-27.14091 -1.05476,17.56672 14.43971,41.27881 8.00466,8.47548"
         id="path1735914" />
      <path
         style="fill:#16293a;fill-opacity:1;stroke:none;stroke-width:0.264583px;stroke-linecap:butt;stroke-linejoin:miter;stroke-opacity:1"
         d="m 289.22154,422.84501 27.19687,-6.2902 26.99602,3.13907 -7.84768,22.13044 0.15695,46.61521 -26.52514,20.71788 -0.94173,-8.16157 2.35432,-10.82982 3.45297,-11.30065 -8.16161,-13.96886 c 0,0 -4.08077,-14.91059 -4.08077,-14.91059 l -12.6002,-27.14091"
         id="path1738718" />
      <path
         style="fill:#0a2222;fill-opacity:1;stroke:none;stroke-width:0.264583px;stroke-linecap:butt;stroke-linejoin:miter;stroke-opacity:1"
         d="m 335.7237,488.43953 33.43111,-19.61919 0.62783,-51.32383 -26.36821,2.19737 -7.84768,22.13044 z"
         id="path1741054" />
      <path
         style="fill:#4d4d50;fill-opacity:1;stroke:none;stroke-width:0.264583px;stroke-linecap:butt;stroke-linejoin:miter;stroke-opacity:1"
         d="m 309.86436,618.39694 5.77112,-29.07752 15.75959,8.65666 20.64281,-12.87402 13.09601,7.99076 3.99536,3.32949 -0.22196,26.63593 -35.7365,0.22195 z"
         id="path1756257" />
      <path
         style="fill:#1c202e;fill-opacity:1;stroke:none;stroke-width:0.264583px;stroke-linecap:butt;stroke-linejoin:miter;stroke-opacity:1"
         d="m 315.63548,589.31942 -18.8671,-6.21504 -23.30643,5.99308 -20.42085,15.31564 -11.09829,16.86941 67.92155,-2.88557 5.77112,-29.07752"
         id="path1760855" />
      <path
         style="fill:#8a8c8e;fill-opacity:1;stroke:none;stroke-width:0.264583px;stroke-linecap:butt;stroke-linejoin:miter;stroke-opacity:1"
         d="m 241.94281,621.28251 -4.00118,-6.96619 0.62781,-26.36821 6.27814,-14.75365 8.78941,-11.61454 1.25562,-9.41724 16.63709,-10.35891 30.56586,10.89128 15.09368,-3.77343 1.77573,19.97694 -22.19659,14.20582 -23.30643,5.99308 -20.42085,15.31564 -11.09829,16.86941"
         id="path1763620" />
      <path
         style="fill:#333947;fill-opacity:1;stroke:none;stroke-width:0.264583px;stroke-linecap:butt;stroke-linejoin:miter;stroke-opacity:1"
         d="m 318.96497,568.89856 24.86017,-5.99308 26.19197,-0.44394 -0.88786,33.96077 -17.09137,-11.32025 -20.64281,12.87402 -15.75959,-8.65666 -18.8671,-6.21504 22.19659,-14.20582"
         id="path1770090" />
      <path
         style="fill:#14514b;fill-opacity:1;stroke:none;stroke-width:0.264583px;stroke-linecap:butt;stroke-linejoin:miter;stroke-opacity:1"
         d="m 317.18924,548.92162 -7.99068,-39.76421 -37.66886,32.64636 30.56586,10.89128 15.09368,-3.77343"
         id="path1772426" />
      <path
         style="fill:#1c2b3b;fill-opacity:1;stroke:none;stroke-width:0.264583px;stroke-linecap:butt;stroke-linejoin:miter;stroke-opacity:1"
         d="m 271.5297,541.80377 37.66886,-32.64636 -19.77615,15.38145 -17.89271,17.26491"
         id="path1780468" />
      <path
         style="fill:#2e3837;fill-opacity:1;stroke:none;stroke-width:0.264583px;stroke-linecap:butt;stroke-linejoin:miter;stroke-opacity:1"
         d="m 335.7237,488.43953 4.55166,58.70065 28.87945,-78.31984 z"
         id="path1789359" />
      <path
         style="fill:#216d6c;fill-opacity:1;stroke:none;stroke-width:0.264583px;stroke-linecap:butt;stroke-linejoin:miter;stroke-opacity:1"
         d="m 369.15481,468.82034 0.8623,93.6412 -26.19197,0.44394 -3.54978,-15.7653 28.87945,-78.31984"
         id="path1792202" />
      <path
         style="fill:#0c5472;fill-opacity:1;stroke:none;stroke-width:0.264583px;stroke-linecap:butt;stroke-linejoin:miter;stroke-opacity:1"
         d="m 317.18924,548.92162 1.77573,19.97694 24.86017,-5.99308 -3.54978,-15.7653 -4.55166,-58.70065 -26.52514,20.71788 7.99068,39.76421"
         id="path1796053" />
      <path
         style="fill:#112642;fill-opacity:1;stroke:none;stroke-width:0.264583px;stroke-linecap:butt;stroke-linejoin:miter;stroke-opacity:1"
         d="m 155.04317,499.86715 6.88094,-1.22079 4.88325,0.55491 -11.76419,0.66588"
         id="path1813944" />
    </g>
  </g>
</svg>
