<?xml version="1.0" encoding="UTF-8" standalone="no"?>
<!-- Created with Inkscape (http://www.inkscape.org/) -->

<svg
   width="367.74222mm"
   height="154.50264mm"
   viewBox="0 0 367.74222 154.50264"
   version="1.1"
   id="svg5"
   inkscape:version="1.1 (c68e22c387, 2021-05-23)"
   sodipodi:docname="hills.svg"
   xmlns:inkscape="http://www.inkscape.org/namespaces/inkscape"
   xmlns:sodipodi="http://sodipodi.sourceforge.net/DTD/sodipodi-0.dtd"
   xmlns="http://www.w3.org/2000/svg"
   xmlns:svg="http://www.w3.org/2000/svg">
  <sodipodi:namedview
     id="namedview7"
     pagecolor="#ffffff"
     bordercolor="#666666"
     borderopacity="1.0"
     inkscape:pageshadow="2"
     inkscape:pageopacity="0.0"
     inkscape:pagecheckerboard="0"
     inkscape:document-units="mm"
     showgrid="false"
     inkscape:zoom="0.66635802"
     inkscape:cx="758.60121"
     inkscape:cy="449.45809"
     inkscape:window-width="1920"
     inkscape:window-height="1017"
     inkscape:window-x="1912"
     inkscape:window-y="-8"
     inkscape:window-maximized="1"
     inkscape:current-layer="layer1" />
  <defs
     id="defs2" />
  <g
     inkscape:label="Layer 1"
     inkscape:groupmode="layer"
     id="layer1"
     transform="translate(95.724055,-29.95456)">
    <g
       id="g236871"
       style="display:inline"
       transform="translate(-97.136637,-127.62683)">
      <path
         style="display:inline;fill:#a6aba5;fill-opacity:1;stroke:none;stroke-width:0.264583px;stroke-linecap:butt;stroke-linejoin:miter;stroke-opacity:1"
         d="m 1.8049662,159.07245 c 0.5493375,1.17716 14.4397288,2.82517 14.4397288,2.82517 l 27.545354,1.0202 8.475493,0.3139 17.5788,-4.55165 13.49801,0.31391 2.982116,0.94172 4.080793,-1.41258 3.139072,0.78476 8.161587,-1.25563 4.3947,0.62782 3.92384,0.47086 3.92384,-1.56954 4.3947,1.56954 9.26026,-0.31391 7.69072,-0.47086 9.26027,1.09868 12.24238,0.62781 6.749,-1.25563 3.29602,-0.94172 20.09006,2.51126 10.67285,9.57417 2.51125,5.65032 -12.55628,8.00464 -8.31854,4.70861 -12.8702,-8.4755 -9.73112,-0.78477 -8.94635,6.90596 -8.7894,-6.749 -13.65496,-4.3947 h -16.48013 l -21.031778,5.65033 -7.376819,-3.13907 -9.26026,-1.56954 -16.480129,-3.92384 -7.376816,1.88344 -8.161586,-2.51126 -7.690725,0.62782 -10.04503,-0.94172 -7.533772,-0.62782 -3.452979,-1.88344 -4.5516536,0.78477 -3.2960251,0.62781 v -9.57416"
         id="path236751" />
      <path
         style="display:inline;fill:#8f9798;fill-opacity:1;stroke:none;stroke-width:0.264583px;stroke-linecap:butt;stroke-linejoin:miter;stroke-opacity:1"
         d="m 13.811915,170.29463 17.421848,19.77616 -9.103308,-3.13908 -8.946354,-1.09867 -10.8297973,-3.92384 0.1569536,-12.08543 7.8476787,-1.41258 z"
         id="path236753" />
      <path
         style="display:inline;fill:#c9c5d4;fill-opacity:1;stroke:none;stroke-width:0.264583px;stroke-linecap:butt;stroke-linejoin:miter;stroke-opacity:1"
         d="m 31.233763,190.07079 4.551654,-5.33643 4.86556,-3.29602 1.726488,-3.76689 -0.313907,-3.29602 -2.982116,-3.13908 8.161586,2.51126 -2.354304,6.90596 -5.493375,5.02252 z"
         id="path236755" />
      <path
         style="display:inline;fill:#a0a4b3;fill-opacity:1;stroke:none;stroke-width:0.264583px;stroke-linecap:butt;stroke-linejoin:miter;stroke-opacity:1"
         d="m 31.233763,190.07079 4.551654,-5.33643 4.86556,-3.29602 1.726488,-3.76689 -0.313907,-3.29602 -2.982116,-3.13908 -7.690725,0.62782 -2.668212,9.10331 0.627814,4.23774 z"
         id="path236757" />
      <path
         style="display:inline;fill:#d6d5e5;fill-opacity:1;stroke:none;stroke-width:0.264583px;stroke-linecap:butt;stroke-linejoin:miter;stroke-opacity:1"
         d="m 31.233763,190.07079 -4.708607,-5.33643 v -5.88576 l 4.865561,-6.98443 -2.668212,9.10331 0.627814,4.23774 1.883444,4.86557"
         id="path236759" />
      <path
         style="display:inline;fill:#999fa9;fill-opacity:1;stroke:none;stroke-width:0.264583px;stroke-linecap:butt;stroke-linejoin:miter;stroke-opacity:1"
         d="m 26.525156,184.73436 v -5.88576 l 4.865561,-6.98443 -17.578802,-1.56954 12.713241,14.43973"
         id="path236761" />
      <path
         style="display:inline;fill:#969caa;fill-opacity:1;stroke:none;stroke-width:0.264583px;stroke-linecap:butt;stroke-linejoin:miter;stroke-opacity:1"
         d="m 31.233763,190.07079 10.358935,3.21754 8.318539,11.61457 5.88576,3.76688 v -9.65264 l -9.103307,-7.4553 10.75132,-4.31622 11.065226,0.86325 9.10331,11.92847 4.002315,1.80496 1.96192,-1.41258 -9.966553,-8.86788 -3.374501,-6.67052 1.648013,-4.63013 5.022514,-3.53146 -22.28741,-4.86556 -7.376816,1.88344 -2.354304,6.90596 -5.493375,5.02252 -8.161586,4.3947"
         id="path236763" />
      <path
         style="display:inline;fill:#99a285;fill-opacity:1;stroke:none;stroke-width:0.264583px;stroke-linecap:butt;stroke-linejoin:miter;stroke-opacity:1"
         d="m 46.69369,191.56184 10.75132,-4.31622 11.065224,0.86325 9.103312,11.92847 -7.455297,3.53145 -6.042713,2.51126 -8.318539,2.58973 v -9.65264 l -9.103307,-7.4553"
         id="path236765" />
      <path
         style="display:inline;fill:#0c606d;fill-opacity:1;stroke:none;stroke-width:0.264583px;stroke-linecap:butt;stroke-linejoin:miter;stroke-opacity:1"
         d="m 55.796997,208.66978 5.571852,4.70861 c 0,0 3.845364,-3.13907 6.905959,-4.55165 3.060594,-1.41258 13.341053,-6.98444 13.341053,-6.98444 l -4.002315,-1.80496 -13.498012,6.04271 -8.318537,2.58973"
         id="path236767" />
      <path
         style="display:inline;fill:#01143e;fill-opacity:1;stroke:none;stroke-width:0.264583px;stroke-linecap:butt;stroke-linejoin:miter;stroke-opacity:1"
         d="m 22.130455,186.93171 8.318541,7.29835 14.204299,9.80959 2.118873,5.88576 14.596681,3.45298 -5.571852,-4.70861 -5.88576,-3.76688 -8.318539,-11.61457 -10.358935,-3.21754 -9.103308,-3.13908"
         id="path236769" />
      <path
         style="display:inline;fill:#abaeb7;fill-opacity:1;stroke:none;stroke-width:0.264583px;stroke-linecap:butt;stroke-linejoin:miter;stroke-opacity:1"
         d="m 80.360231,177.35755 -5.57185,4.86556 2.43278,7.92615 1.96192,3.21755 3.609932,-5.02251 3.45298,-3.84537 1.491059,-4.00231 -7.376821,-3.13907"
         id="path236771" />
      <path
         style="display:inline;fill:#e0deed;fill-opacity:1;stroke:none;stroke-width:0.264583px;stroke-linecap:butt;stroke-linejoin:miter;stroke-opacity:1"
         d="m 80.360231,177.35755 -3.452977,-0.62782 -5.022514,3.53146 -1.648015,4.63013 3.374501,6.67052 9.966555,8.86788 1.879084,-4.60032 -2.663592,-3.16302 3.384981,-3.66243 3.606945,-4.32834 -2.048147,-4.17899 -1.491059,4.00231 -3.452982,3.84537 -3.60993,5.02251 -1.96192,-3.21755 -2.43278,-7.92615 5.57185,-4.86556"
         id="path236773" />
      <path
         style="display:inline;fill:#828d7f;fill-opacity:1;stroke:none;stroke-width:0.264583px;stroke-linecap:butt;stroke-linejoin:miter;stroke-opacity:1"
         d="m 125.24896,174.84629 9.15138,14.71257 12.985,10.87633 -5.43816,2.55261 -13.53992,-7.87979 -26.52492,7.99077 -11.32026,7.76881 -6.984299,-10.43787 1.879084,-4.60032 -2.663592,-3.16302 6.991924,-7.99077 -2.048145,-4.17899 21.031778,-5.65033 h 16.48013"
         id="path236775" />
      <path
         style="display:inline;fill:#c4c5cb;fill-opacity:1;stroke:none;stroke-width:0.264583px;stroke-linecap:butt;stroke-linejoin:miter;stroke-opacity:1"
         d="m 147.69332,185.98999 -13.29298,3.56887 -9.15138,-14.71257 13.65496,4.3947 8.7894,6.749"
         id="path236777" />
      <path
         style="display:inline;fill:#a0a4b2;fill-opacity:1;stroke:none;stroke-width:0.264583px;stroke-linecap:butt;stroke-linejoin:miter;stroke-opacity:1"
         d="m 134.40034,189.55886 12.985,10.87633 0.30798,-14.4452 -13.29298,3.56887"
         id="path236779" />
      <path
         style="display:inline;fill:#425056;fill-opacity:1;stroke:none;stroke-width:0.264583px;stroke-linecap:butt;stroke-linejoin:miter;stroke-opacity:1"
         d="m 155.59808,199.76929 4.77227,-1.99769 -0.22197,-8.98962 3.77342,-3.8844 -1.88671,-5.32718 -5.39542,-0.48637 -5.61963,4.17655 1.96994,8.96187 z"
         id="path236781" />
      <path
         style="display:inline;fill:#a8aeaa;fill-opacity:1;stroke:none;stroke-width:0.264583px;stroke-linecap:butt;stroke-linejoin:miter;stroke-opacity:1"
         d="m 147.38534,200.43519 8.21274,-0.6659 -2.6081,-7.54684 -1.96994,-8.96187 -3.32672,2.72941 -0.30798,14.4452"
         id="path236783" />
      <path
         style="display:inline;fill:#e5e3f0;fill-opacity:1;stroke:none;stroke-width:0.264583px;stroke-linecap:butt;stroke-linejoin:miter;stroke-opacity:1"
         d="m 186.93171,160.40656 21.81655,0.62781 9.57417,0.78477 11.92847,-1.72649 14.12582,1.88344 -11.30065,6.59206 -7.37682,8.31854 3.13907,8.47549 -13.49801,-9.26026 -6.90596,6.12119 -8.31854,-6.59206 -2.51125,-5.65032 -10.67285,-9.57417"
         id="path236785" />
      <path
         style="display:inline;fill:#bebed1;fill-opacity:1;stroke:none;stroke-width:0.264583px;stroke-linecap:butt;stroke-linejoin:miter;stroke-opacity:1"
         d="m 244.37672,161.97609 5.17947,0.78477 9.26026,1.25563 18.36356,0.62782 17.10796,5.17946 10.20199,-0.3139 19.77615,4.55165 29.0364,3.13907 12.39933,0.47086 3.29602,1.41258 v 18.36357 l -53.05031,-10.51589 -25.74038,-12.87019 -20.87483,-2.66821 -24.95562,-9.41722"
         id="path236787" />
      <path
         style="display:inline;fill:#a6aba5;fill-opacity:1;stroke:none;stroke-width:0.264583px;stroke-linecap:butt;stroke-linejoin:miter;stroke-opacity:1"
         d="m 368.99786,197.4476 -0.47085,15.85232 -19.3053,-8.16159 -22.91522,-6.74901 -25.74038,-4.08079 -31.23377,-22.91522 20.87483,2.66821 25.74038,12.87019 z"
         id="path236789" />
      <path
         style="display:inline;fill:#364648;fill-opacity:1;stroke:none;stroke-width:0.264583px;stroke-linecap:butt;stroke-linejoin:miter;stroke-opacity:1"
         d="m 332.74158,219.1072 13.49801,-1.25563 -1.88343,-8.63245 -5.49339,-5.49337 -5.96424,2.66821 z"
         id="path236791" />
      <path
         style="display:inline;fill:#41534f;fill-opacity:1;stroke:none;stroke-width:0.264583px;stroke-linecap:butt;stroke-linejoin:miter;stroke-opacity:1"
         d="m 324.10916,240.29593 -9.26029,-13.1841 -8.31853,-8.63245 5.17946,-7.06291 -9.57416,-10.51589 -10.98674,1.88344 -0.47088,11.77152 -8.00463,13.02715 -9.4172,18.52052 11.14369,-7.69072 14.28279,-2.98212 z"
         id="path236793" />
      <path
         style="display:inline;fill:#41534f;fill-opacity:1;stroke:none;stroke-width:0.264583px;stroke-linecap:butt;stroke-linejoin:miter;stroke-opacity:1"
         d="m 239.0403,200.42972 5.02252,-1.88344 4.55165,2.3543 2.0404,-3.13907 -7.37682,-10.67284 -7.06291,2.98212 z"
         id="path236795" />
      <path
         style="display:inline;fill:#41534f;fill-opacity:1;stroke:none;stroke-width:0.264583px;stroke-linecap:butt;stroke-linejoin:miter;stroke-opacity:1"
         d="m 179.24099,188.3443 5.96423,8.31854 4.3947,12.08542 18.04967,5.17947 -3.92384,-15.53841 -5.33643,4.86557 -1.88344,3.29602 -2.66821,-12.24238 -5.17947,3.76689 -1.41258,-7.37682 -3.13907,-2.19735 z"
         id="path236797" />
      <path
         style="display:inline;fill:#f3f7fd;fill-opacity:1;stroke:none;stroke-width:0.264583px;stroke-linecap:butt;stroke-linejoin:miter;stroke-opacity:1"
         d="m 208.43435,182.22311 -0.15695,4.3947 5.49338,5.96423 4.55165,7.84768 2.82516,8.7894 -2.3543,9.26026 2.51126,2.51126 3.76688,-9.57417 -3.29602,-10.04503 -0.31391,-7.06291 -5.96424,-7.37682 z"
         id="path236799" />
      <path
         style="display:inline;fill:#f3f7fd;fill-opacity:1;stroke:none;stroke-width:0.264583px;stroke-linecap:butt;stroke-linejoin:miter;stroke-opacity:1"
         d="m 228.83832,185.36218 3.45298,5.02251 3.92384,-0.3139 -1.72649,-3.29603 -5.65033,-1.41258"
         id="path236801" />
      <path
         style="display:inline;fill:#f3f7fd;fill-opacity:1;stroke:none;stroke-width:0.264583px;stroke-linecap:butt;stroke-linejoin:miter;stroke-opacity:1"
         d="m 248.61447,200.90058 12.08446,7.4144 11.43124,6.99192 -8.10175,9.65552 -13.42894,9.98847 5.2162,7.43585 2.88556,2.77458 -1.3318,6.10406 0.99885,9.87748 5.21619,4.99424 2.88557,-9.87749 -0.55491,-7.99077 -3.3295,-5.8821 -6.88095,-6.32602 14.64976,-11.54223 5.66012,-8.65667 -4.66129,-6.548 -20.69841,-11.55231 z"
         id="path236803" />
      <path
         style="display:inline;fill:#c4c3d2;fill-opacity:1;stroke:none;stroke-width:0.264583px;stroke-linecap:butt;stroke-linejoin:miter;stroke-opacity:1"
         d="m 228.83832,185.36218 5.65033,1.41258 1.72649,3.29603 7.06291,-2.98212 7.37682,10.67284 -2.16407,-11.42115 2.10868,-8.76766 -6.22276,-15.59661 -11.30065,6.59206 -7.37682,8.31854 z"
         id="path236805" />
      <path
         style="display:inline;fill:#a4a8b0;fill-opacity:1;stroke:none;stroke-width:0.264583px;stroke-linecap:butt;stroke-linejoin:miter;stroke-opacity:1"
         d="m 250.59948,177.5727 14.20581,7.65783 6.32603,11.98616 3.10753,6.99192 -2.88557,5.10521 -20.69841,-11.55231 -2.16407,-11.42115 2.10868,-8.76766"
         id="path236807" />
      <path
         style="display:inline;fill:#bdc1c0;fill-opacity:1;stroke:none;stroke-width:0.264583px;stroke-linecap:butt;stroke-linejoin:miter;stroke-opacity:1"
         d="m 274.23885,204.20861 16.91005,-1.42459 10.98674,-1.88344 -1.56953,-6.59205 -31.23377,-22.91522 -24.95562,-9.41722 6.22276,15.59661 14.20581,7.65783 z"
         id="path236809" />
      <path
         style="display:inline;fill:#a7aab3;fill-opacity:1;stroke:none;stroke-width:0.264583px;stroke-linecap:butt;stroke-linejoin:miter;stroke-opacity:1"
         d="m 239.0403,200.42972 -13.96887,10.98675 -3.29602,-10.04503 -0.31391,-7.06291 -5.96424,-7.37682 -7.06291,-4.7086 6.90596,-6.12119 13.49801,9.26026 3.45298,5.02251 3.92384,-0.3139 z"
         id="path236811" />
      <path
         style="display:inline;fill:#a9acbb;fill-opacity:1;stroke:none;stroke-width:0.264583px;stroke-linecap:butt;stroke-linejoin:miter;stroke-opacity:1"
         d="m 218.79329,218.47938 -11.1437,-4.55165 -3.92384,-15.53841 -5.33643,4.86557 -1.88344,3.29602 -2.66821,-12.24238 -5.17947,3.76689 -1.41258,-7.37682 -3.13907,-2.19735 -4.86556,-0.15695 20.87482,-12.71325 8.31854,6.59206 -0.15695,4.3947 5.49338,5.96423 4.55165,7.84768 2.82516,8.7894 -2.3543,9.26026"
         id="path236813" />
      <path
         style="display:inline;fill:#879189;fill-opacity:1;stroke:none;stroke-width:0.264583px;stroke-linecap:butt;stroke-linejoin:miter;stroke-opacity:1"
         d="m 250.59948,234.95089 -10.87633,-5.32719 -9.1006,-3.55145 -9.318,-5.08161 3.76688,-9.57417 13.96887,-10.98675 5.02252,-1.88344 4.55165,2.3543 23.5157,14.40632 -8.10175,9.65552 -13.42894,9.98847"
         id="path236815" />
      <path
         style="display:inline;fill:#0c606d;fill-opacity:1;stroke:none;stroke-width:0.264583px;stroke-linecap:butt;stroke-linejoin:miter;stroke-opacity:1"
         d="m 273.25619,246.10321 -7.34105,2.16563 -3.3295,-5.8821 -6.88095,-6.32602 14.64976,-11.54223 5.66012,-8.65667 -4.66129,-6.548 2.88557,-5.10521 16.91005,-1.42459 -0.47088,11.77152 -17.42183,31.54767"
         id="path236817" />
      <path
         style="display:inline;fill:#909d7c;fill-opacity:1;stroke:none;stroke-width:0.264583px;stroke-linecap:butt;stroke-linejoin:miter;stroke-opacity:1"
         d="m 189.59992,208.74826 -13.1841,13.02715 -34.46864,-18.78761 5.43816,-2.55261 8.21274,-0.6659 4.77227,-1.99769 -0.22197,-8.98962 3.77342,-3.8844 -1.88671,-5.32718 4.3357,0.2984 12.8702,8.4755 5.96423,8.31854 4.3947,12.08542"
         id="path236819" />
      <path
         style="display:inline;fill:#0c606d;fill-opacity:1;stroke:none;stroke-width:0.264583px;stroke-linecap:butt;stroke-linejoin:miter;stroke-opacity:1"
         d="m 90.56208,210.86759 22.7584,8.71047 23.22914,7.37682 19.9331,9.1033 12.39933,5.17947 8.7894,-0.78477 14.43973,3.45298 18.36357,3.60993 -1.09867,-7.69072 c 0,0 -9.73113,-6.12119 -10.8298,-6.59205 -1.09868,-0.47086 -22.13046,-11.45761 -22.13046,-11.45761 l -34.46864,-18.78761 -13.53992,-7.87979 -26.52492,7.99077 -11.32026,7.76881"
         id="path236821" />
      <path
         style="display:inline;fill:#02091c;fill-opacity:1;stroke:none;stroke-width:0.264583px;stroke-linecap:butt;stroke-linejoin:miter;stroke-opacity:1"
         d="m 176.41582,221.77541 13.1841,-13.02715 -0.78476,9.73112 2.98211,-3.76688 5.02252,6.59205 3.13907,-4.86556 7.37682,13.02714 2.0404,10.35894 -32.96026,-18.04966"
         id="path236823" />
      <path
         style="display:inline;fill:#0d486d;fill-opacity:1;stroke:none;stroke-width:0.264583px;stroke-linecap:butt;stroke-linejoin:miter;stroke-opacity:1"
         d="m 189.59992,208.74826 -0.78476,9.73112 2.98211,-3.76688 5.02252,6.59205 3.13907,-4.86556 7.37682,13.02714 2.0404,10.35894 25.74038,9.26026 23.25183,12.05753 -0.99885,-9.87748 1.3318,-6.10406 -8.10176,-10.21043 -10.87633,-5.32719 -9.1006,-3.55145 -9.318,-5.08161 -2.51126,-2.51126 -11.1437,-4.55165 -18.04967,-5.17947"
         id="path236825" />
      <path
         style="display:inline;fill:#afb58e;fill-opacity:1;stroke:none;stroke-width:0.264583px;stroke-linecap:butt;stroke-linejoin:miter;stroke-opacity:1"
         d="m 311.7098,211.41647 21.03178,7.69073 0.15695,-12.71324 5.96424,-2.66821 5.49339,5.49337 1.88343,8.63245 22.28742,-4.55165 -19.3053,-8.16159 -22.91522,-6.74901 -25.74038,-4.08079 1.56953,6.59205 9.57416,10.51589"
         id="path236827" />
      <path
         style="display:inline;fill:#0c606d;fill-opacity:1;stroke:none;stroke-width:0.264583px;stroke-linecap:butt;stroke-linejoin:miter;stroke-opacity:1"
         d="m 346.23959,217.85157 19.6192,10.82979 3.29602,3.60994 -0.6278,26.05429 -44.41785,-18.04966 -9.26029,-13.1841 -8.31853,-8.63245 5.17946,-7.06291 21.03178,7.69073 13.49801,-1.25563"
         id="path236829" />
      <path
         style="display:inline;fill:#14514b;fill-opacity:1;stroke:none;stroke-width:0.264583px;stroke-linecap:butt;stroke-linejoin:miter;stroke-opacity:1"
         d="m 368.52701,213.29992 0.6278,18.99138 -3.29602,-3.60994 -19.6192,-10.82979 22.28742,-4.55165"
         id="path236831" />
      <path
         style="display:inline;fill:#cccadc;fill-opacity:1;stroke:none;stroke-width:0.264583px;stroke-linecap:butt;stroke-linejoin:miter;stroke-opacity:1"
         d="m 263.58448,266.1371 15.16506,11.98464 15.69538,13.02716 8.7894,13.65496 1.41259,7.06289 46.77217,-0.15695 -29.19339,-10.04501 -13.81191,-10.51589 -14.91059,-10.67284 -14.12582,-9.73114 -9.88808,-4.3947 -3.01924,-10.09061 z"
         id="path236833" />
      <path
         style="display:inline;fill:#25361f;fill-opacity:1;stroke:none;stroke-width:0.264583px;stroke-linecap:butt;stroke-linejoin:miter;stroke-opacity:1"
         d="m 368.52701,258.34558 0.15695,14.43975 -16.32318,-3.60994 -2.19734,-7.21986 z"
         id="path236835" />
      <path
         style="display:inline;fill:#14514b;fill-opacity:1;stroke:none;stroke-width:0.264583px;stroke-linecap:butt;stroke-linejoin:miter;stroke-opacity:1"
         d="m 368.52701,258.34558 -18.36357,3.60995 2.19734,7.21986 16.32318,3.60994 v 38.76752 l -17.26488,0.15695 -29.19339,-10.04501 -42.84832,-30.91987 -9.88808,-4.3947 -3.01924,-10.09061 -0.55491,-7.99077 7.34105,-2.16563 11.14369,-7.69072 14.28279,-2.98212 25.42649,4.86556 44.41785,18.04965"
         id="path236837" />
      <path
         style="display:inline;fill:#010922;fill-opacity:1;stroke:none;stroke-width:0.264583px;stroke-linecap:butt;stroke-linejoin:miter;stroke-opacity:1"
         d="m 1.4125822,198.70323 14.5966828,23.22913 -6.1211896,14.59668 10.2019826,5.96424 -6.59205,5.49338 7.376818,3.45297 -5.179468,8.00464 8.946354,-0.15696 7.376819,7.21986 c 0,0 -2.354305,5.80728 -1.726491,6.12119 0.627816,0.31392 -1.255628,12.8702 -1.255628,12.8702 l -12.399333,11.30065 -4.237746,15.06754 H 1.5695358 Z"
         id="path236839" />
      <path
         style="display:inline;fill:#cfcfd8;fill-opacity:1;stroke:none;stroke-width:0.264583px;stroke-linecap:butt;stroke-linejoin:miter;stroke-opacity:1"
         d="m 61.368849,213.37839 10.515891,8.55397 -12.085426,6.90596 -5.493376,5.17947 -3.92384,6.12119 7.062912,1.25563 3.139072,-7.37682 3.609933,-2.19735 7.376818,-6.4351 2.982116,-3.45298 -13.1841,-8.55397"
         id="path236841" />
      <path
         style="display:inline;fill:#d4cedc;fill-opacity:1;stroke:none;stroke-width:0.264583px;stroke-linecap:butt;stroke-linejoin:miter;stroke-opacity:1"
         d="m 65.292689,247.98666 5.179467,5.65033 -1.569535,9.73112 -12.085425,10.20198 4.080793,7.37682 3.452979,1.25563 1.098674,7.37682 5.022514,5.02251 6.278145,8.00462 16.323172,9.26026 3.296025,-5.80726 -14.282777,-5.49338 -5.33642,-6.12119 -6.435098,-6.74902 1.098677,-3.92382 -5.493377,-5.02254 -2.197349,-3.45297 -2.354305,-1.09868 3.766886,-5.65031 9.574168,-4.0808 1.412584,-7.21986 z"
         id="path236843" />
      <path
         style="display:inline;fill:#0c606d;fill-opacity:1;stroke:none;stroke-width:0.264583px;stroke-linecap:butt;stroke-linejoin:miter;stroke-opacity:1"
         d="M 50.382098,240.13898 16.009265,221.93236 1.4125822,198.70323 2.3543037,181.9092 l 10.8297973,3.92384 8.946354,1.09867 8.318541,7.29835 14.204299,9.80959 2.118873,5.88576 14.596681,3.45298 10.515891,8.55397 -12.085428,6.90596 -5.493374,5.17947 -3.92384,6.12119"
         id="path236845" />
      <path
         style="display:inline;fill:#0c5472;fill-opacity:1;stroke:none;stroke-width:0.264583px;stroke-linecap:butt;stroke-linejoin:miter;stroke-opacity:1"
         d="m 57.44501,241.39461 7.847679,6.59205 10.358937,-7.06291 13.027147,-2.66822 10.986751,-7.06291 36.884096,-4.23774 -45.98754,-16.08729 -16.009133,11.06477 -2.982114,3.45298 -7.376818,6.4351 -3.609933,2.19735 -3.139072,7.37682"
         id="path236847" />
      <path
         style="display:inline;fill:#216d6c;fill-opacity:1;stroke:none;stroke-width:0.264583px;stroke-linecap:butt;stroke-linejoin:miter;stroke-opacity:1"
         d="m 74.552947,221.93236 16.009133,-11.06477 -6.984299,-10.43787 -1.96192,1.41258 -14.282774,7.4553 -5.964238,4.08079 z"
         id="path236849" />
      <path
         style="display:inline;fill:#090f20;fill-opacity:1;stroke:none;stroke-width:0.264583px;stroke-linecap:butt;stroke-linejoin:miter;stroke-opacity:1"
         d="m 99.665522,231.19262 0.663058,14.52361 10.65436,5.10522 15.98154,1.99769 8.87864,-13.76189 0.7065,-12.10237 -36.884098,4.23774"
         id="path236851" />
      <path
         style="display:inline;fill:#030a21;fill-opacity:1;stroke:none;stroke-width:0.264583px;stroke-linecap:butt;stroke-linejoin:miter;stroke-opacity:1"
         d="m 168.88205,241.23765 -10.17644,3.36875 -4.43932,17.5353 0.44393,15.31565 c 0,0 17.5353,2.66358 16.86941,1.3318 -0.6659,-1.3318 -2.69758,-37.5515 -2.69758,-37.5515"
         id="path236853" />
      <path
         style="display:inline;fill:#216d6c;fill-opacity:1;stroke:none;stroke-width:0.264583px;stroke-linecap:butt;stroke-linejoin:miter;stroke-opacity:1"
         d="m 16.009265,221.93236 34.372833,18.20662 7.062912,1.25563 7.847679,6.59205 5.179467,5.65033 -1.569537,9.73112 v 0 l -12.085423,10.20198 4.080793,7.37682 3.452979,1.25563 1.098674,7.37682 -36.41323,-4.0808 2.982119,-18.99139 -7.376819,-7.21986 -8.946354,0.15696 5.179468,-8.00464 -7.376818,-3.45297 6.59205,-5.49338 -10.2019829,-5.96424 6.1211899,-14.59668"
         id="path236855" />
      <path
         style="display:inline;fill:#15383f;fill-opacity:1;stroke:none;stroke-width:0.264583px;stroke-linecap:butt;stroke-linejoin:miter;stroke-opacity:1"
         d="m 93.073473,311.86675 h -80.67414 v 0 l 4.237746,-15.06754 12.399333,-11.30065 36.41323,4.0808 11.300659,13.02713 z"
         id="path236857" />
      <path
         style="display:inline;fill:#0c5472;fill-opacity:1;stroke:none;stroke-width:0.264583px;stroke-linecap:butt;stroke-linejoin:miter;stroke-opacity:1"
         d="m 93.073473,311.86675 158.413867,0.21728 -20.64282,-19.31104 -34.62668,-15.31564 -54.38164,9.76651 -45.466704,18.83563 z"
         id="path236859" />
      <path
         style="display:inline;fill:#0c455f;fill-opacity:1;stroke:none;stroke-width:0.264583px;stroke-linecap:butt;stroke-linejoin:miter;stroke-opacity:1"
         d="m 136.54962,226.95488 32.33243,14.28277 -10.17644,3.36875 -4.43932,17.5353 0.44393,15.31565 -12.87402,9.76651 -45.466704,18.83563 -14.282777,-5.49338 -11.771516,-12.87021 1.098677,-3.92382 -5.493377,-5.02254 -2.197349,-3.45297 -2.354305,-1.09868 3.766884,-5.65031 9.57417,-4.0808 1.412584,-7.21986 -5.650331,-3.60993 -5.179467,-5.65033 10.358935,-7.06291 13.027149,-2.66822 10.986749,-7.06291 0.663058,14.52361 10.65436,5.10522 15.98154,1.99768 8.87864,-13.76188 0.7065,-12.10237"
         id="path236861" />
      <path
         style="display:inline;fill:#14514b;fill-opacity:1;stroke:none;stroke-width:0.264583px;stroke-linecap:butt;stroke-linejoin:miter;stroke-opacity:1"
         d="m 210.47475,247.51579 -14.25691,29.94156 -54.38164,9.76651 12.87402,-9.76651 14.17183,-36.2197 8.7894,-0.78477 z"
         id="path236863" />
      <path
         style="display:inline;fill:#216d6c;fill-opacity:1;stroke:none;stroke-width:0.264583px;stroke-linecap:butt;stroke-linejoin:miter;stroke-opacity:1"
         d="m 251.48734,312.08403 53.15957,-0.21728 -1.41259,-7.06289 -8.7894,-13.65496 -30.86044,-25.0118 -5.21619,-4.99424 -23.25183,-12.05753 -25.74038,-9.26026 1.09867,7.69072 -14.25691,29.94156 34.62668,15.31564 z"
         id="path236865" />
      <path
         style="display:inline;fill:#0c455f;fill-opacity:1;stroke:none;stroke-width:0.264583px;stroke-linecap:butt;stroke-linejoin:miter;stroke-opacity:1"
         d="m 76.750301,302.60649 -6.278145,-8.00462 -5.022514,-5.02251 11.300659,13.02713"
         id="path236867" />
      <path
         style="display:inline;fill:#0c5472;fill-opacity:1;stroke:none;stroke-width:0.264583px;stroke-linecap:butt;stroke-linejoin:miter;stroke-opacity:1"
         d="m 29.036412,285.49856 0.156953,-13.02715 2.825166,-5.96424 -2.982119,18.99139"
         id="path236869" />
    </g>
  </g>
</svg>
