<?xml version="1.0" encoding="UTF-8" standalone="no"?>
<!-- Created with Inkscape (http://www.inkscape.org/) -->

<svg
   width="366.88391mm"
   height="100.63729mm"
   viewBox="0 0 366.88391 100.63729"
   version="1.1"
   id="svg5"
   inkscape:version="1.1 (c68e22c387, 2021-05-23)"
   sodipodi:docname="mountain.svg"
   xmlns:inkscape="http://www.inkscape.org/namespaces/inkscape"
   xmlns:sodipodi="http://sodipodi.sourceforge.net/DTD/sodipodi-0.dtd"
   xmlns="http://www.w3.org/2000/svg"
   xmlns:svg="http://www.w3.org/2000/svg">
  <sodipodi:namedview
     id="namedview7"
     pagecolor="#ffffff"
     bordercolor="#666666"
     borderopacity="1.0"
     inkscape:pageshadow="2"
     inkscape:pageopacity="0.0"
     inkscape:pagecheckerboard="0"
     inkscape:document-units="mm"
     showgrid="false"
     inkscape:zoom="0.66635802"
     inkscape:cx="563.51089"
     inkscape:cy="11.255211"
     inkscape:window-width="1920"
     inkscape:window-height="1017"
     inkscape:window-x="1912"
     inkscape:window-y="-8"
     inkscape:window-maximized="1"
     inkscape:current-layer="layer1" />
  <defs
     id="defs2" />
  <g
     inkscape:label="Layer 1"
     inkscape:groupmode="layer"
     id="layer1"
     transform="translate(44.074311,-82.299003)">
    <g
       id="g464070"
       style="display:inline"
       transform="translate(-46.266756,-2.1832489)">
      <path
         style="fill:#7c8a9f;fill-opacity:1;stroke:none;stroke-width:0.264583px;stroke-linecap:butt;stroke-linejoin:miter;stroke-opacity:1"
         d="m 2.6309344,121.31531 11.4007156,-0.87698 11.10839,-7.30815 3.800238,-0.58465 7.600476,-5.5542 3.507915,2.63094 5.261867,-1.75396 5.261869,1.75396 13.446998,13.44699 11.693043,9.06211 -2.923262,3.50791 -6.138847,-2.92326 -5.261869,1.75396 -9.062106,-1.75396 -1.753957,5.84652 7.600479,4.67722 -3.80024,4.67722 -12.862345,-2.63094 -12.570021,-4.38489 -6.138847,-0.58465 -1.46163,-3.21559 -11.9853677,3.50792 6.1388467,-8.18513 1.753957,-7.30815 z"
         id="path27273" />
      <path
         style="fill:#7d8c8d;fill-opacity:1;stroke:none;stroke-width:0.264583px;stroke-linecap:butt;stroke-linejoin:miter;stroke-opacity:1"
         d="m 9.3544331,140.60883 -6.1388466,3.06942 -1.0231412,-0.58465 0.438489,-21.77829 14.6163027,3.80024 -1.753957,7.30815 -6.1388469,8.18513"
         id="path33431" />
      <path
         style="fill:#6d7a93;fill-opacity:1;stroke:none;stroke-width:0.264583px;stroke-linecap:butt;stroke-linejoin:miter;stroke-opacity:1"
         d="m 45.310536,107.86831 9.208272,-1.60779 4.384889,-3.36175 6.723499,-1.31547 2.923262,-1.607793 5.846519,0.146163 4.969545,1.1693 1.023141,0.58466 3.654076,-1.31547 3.215584,-1.315469 9.500597,3.800239 5.40803,2.48477 7.60048,3.9464 2.33861,2.19245 -0.43849,5.70036 -7.45431,4.09256 -6.431179,2.19245 -9.646758,0.58465 -10.669902,0.58465 -5.700358,-0.14616 -7.74664,-1.6078 -13.446998,-13.44699 z"
         id="path55843" />
      <path
         style="fill:#727788;fill-opacity:1;stroke:none;stroke-width:0.264583px;stroke-linecap:butt;stroke-linejoin:miter;stroke-opacity:1"
         d="m 112.10704,111.66855 11.69304,3.80024 19.87817,0.29232 10.6699,-1.75395 -8.18513,11.10839 -8.62362,7.16198 -9.35443,4.3849 -11.10839,5.1157 -10.08525,5.40803 -10.23141,-7.01582 -11.400715,-4.67722 -9.646759,-3.36175 -11.693043,-9.06211 7.74664,1.6078 5.700358,0.14616 20.316658,-1.1693 6.431181,-2.19245 7.45431,-4.09256 0.43849,-5.70036"
         id="path67539" />
      <path
         style="fill:#6b727d;fill-opacity:1;stroke:none;stroke-width:0.264583px;stroke-linecap:butt;stroke-linejoin:miter;stroke-opacity:1"
         d="m 106.99133,147.18616 -15.639443,6.13885 -22.728348,6.94274 -26.820915,-6.65041 -0.292325,-8.3313 12.862345,2.63094 3.80024,-4.67722 -7.600479,-4.67722 1.753957,-5.84652 9.062106,1.75396 5.261867,-1.75396 6.138849,2.92326 2.923262,-3.50791 21.047472,8.03897 z"
         id="path80269" />
      <path
         style="fill:#808b89;fill-opacity:1;stroke:none;stroke-width:0.264583px;stroke-linecap:butt;stroke-linejoin:miter;stroke-opacity:1"
         d="m 2.1924453,143.0936 0.2192446,20.38974 3.8733202,-0.36541 11.4737969,-2.55785 13.08159,-4.23873 1.607793,0.65774 9.354434,-3.36175 -0.292325,-8.3313 -12.570021,-4.38489 -6.138847,-0.58465 -1.46163,-3.21559 -11.9853679,3.50792 -6.1388466,3.06942 -1.0231412,-0.58465"
         id="path94158" />
      <path
         style="fill:#70829b;fill-opacity:1;stroke:none;stroke-width:0.264583px;stroke-linecap:butt;stroke-linejoin:miter;stroke-opacity:1"
         d="m 123.80008,115.46879 6.7235,-3.94641 11.25455,-2.92326 0.58465,2.33861 3.36175,0.43849 2.19245,1.75396 6.43117,0.87698 -10.6699,1.75395 -19.87817,-0.29232"
         id="path114762" />
      <path
         style="fill:#9daabf;fill-opacity:1;stroke:none;stroke-width:0.264583px;stroke-linecap:butt;stroke-linejoin:miter;stroke-opacity:1"
         d="m 145.72453,111.37622 3.21559,-2.19244 2.70401,-1.68088 5.11571,-2.48477 8.84286,-2.11936 4.82338,-0.58466 2.92326,0.87698 -2.11936,1.68088 -2.85018,1.75395 -7.96589,5.11571 -2.41168,-0.14616 -2.26553,1.38855 -1.38855,1.02314 -6.43117,-0.87698 -2.19245,-1.75396"
         id="path124778" />
      <path
         style="fill:#959097;fill-opacity:1;stroke:none;stroke-width:0.264583px;stroke-linecap:butt;stroke-linejoin:miter;stroke-opacity:1"
         d="m 178.97662,101.14481 -1.9732,0.29233 -0.95006,1.1693 -2.70402,0.58465 -2.11936,1.68088 -10.81607,6.86966 -2.41168,-0.14616 -3.65408,2.41169 -8.18513,11.10839 8.91595,3.72715 7.30815,-2.70401 7.45431,2.33861 18.70887,-5.26187 19.00119,4.31181 8.91595,1.75395 5.62727,2.7771 6.57734,0.14616 4.16564,-1.53471 -6.21192,-4.82338 -7.67356,-3.72716 -14.47014,-4.89646 -14.54322,-5.77344 -7.96589,-3.21558 -3.28867,-4.7503 z"
         id="path130858" />
      <path
         style="fill:#98a5be;fill-opacity:1;stroke:none;stroke-width:0.264583px;stroke-linecap:butt;stroke-linejoin:miter;stroke-opacity:1"
         d="m 178.97662,101.14481 3.69957,0.86447 1.39526,-1.03353 2.27376,-0.31006 3.97909,1.91203 0.93018,-0.31006 1.34358,1.29191 2.94556,-1.39527 2.53214,0.93018 3.87573,2.27376 2.79053,3.87574 5.37435,2.94555 13.74593,7.95817 9.45679,5.94279 -0.4814,4.57925 -6.21192,-4.82338 -7.67356,-3.72716 -14.65285,-4.933 -22.3264,-8.95248 -3.28867,-4.7503 0.29233,-2.33861"
         id="path154266" />
      <path
         style="fill:#bbbdc1;fill-opacity:1;stroke:none;stroke-width:0.264583px;stroke-linecap:butt;stroke-linejoin:miter;stroke-opacity:1"
         d="m 204.74202,109.24398 3.68645,0.0129 5.62728,-0.80389 1.90011,-2.63094 4.31181,-1.02314 5.26187,-3.06942 2.70402,-3.727159 21.63213,-13.520079 6.21192,3.142504 6.06577,0.438489 12.71618,2.850179 7.81974,2.119365 -6.79659,1.169303 -6.3581,1.023141 -4.45797,2.046284 -5.70036,1.096222 -3.9464,3.654071 -7.74664,0.29233 -5.18879,3.58099 -7.81972,-1.1693 -6.43117,-0.73081 -3.87332,1.68087 -6.65042,5.70036 -12.9678,-2.13225"
         id="path182254" />
      <path
         style="fill:#838f8c;fill-opacity:1;stroke:none;stroke-width:0.264583px;stroke-linecap:butt;stroke-linejoin:miter;stroke-opacity:1"
         d="m 255.41988,102.02181 4.87431,4.12158 7.44141,2.89388 0.15502,3.514 -7.07967,-0.36174 -3.04891,2.6355 -2.79052,7.9065 -1.757,1.34358 -5.06429,-3.97908 -5.66578,-14.2009 5.18879,-3.58099 7.74664,-0.29233"
         id="path188718" />
      <path
         style="fill:#7784a2;fill-opacity:1;stroke:none;stroke-width:0.264583px;stroke-linecap:butt;stroke-linejoin:miter;stroke-opacity:1"
         d="m 248.15023,120.09603 -7.9065,-1.34359 -8.42326,-3.04891 -4.54752,-2.53214 0.96061,-9.17637 14.25089,1.90011 z"
         id="path202421" />
      <path
         style="fill:#4d576a;fill-opacity:1;stroke:none;stroke-width:0.264583px;stroke-linecap:butt;stroke-linejoin:miter;stroke-opacity:1"
         d="m 227.27295,113.17139 -2.91271,-7.4955 3.87332,-1.68087 -0.96061,9.17637"
         id="path208462" />
      <path
         style="fill:#5d697b;fill-opacity:1;stroke:none;stroke-width:0.264583px;stroke-linecap:butt;stroke-linejoin:miter;stroke-opacity:1"
         d="m 227.27295,113.17139 -9.56313,-1.79514 6.65042,-5.70036 2.91271,7.4955"
         id="path219017" />
      <path
         style="fill:#8d9096;fill-opacity:1;stroke:none;stroke-width:0.264583px;stroke-linecap:butt;stroke-linejoin:miter;stroke-opacity:1"
         d="m 233.31909,126.09049 -12.5057,-7.64811 -16.07137,-9.1984 12.9678,2.13227 9.56313,1.79514 4.54752,2.53214 8.42326,3.04891 6.97632,5.94279 5.68441,1.08521 0.31006,-1.70533 2.53214,4.80591 1.96371,2.48047 -0.31006,2.53215 -6.25285,-0.56845 -7.95817,-2.22208 -9.8702,-5.01262"
         id="path226150" />
      <path
         style="fill:#7b877d;fill-opacity:1;stroke:none;stroke-width:0.264583px;stroke-linecap:butt;stroke-linejoin:miter;stroke-opacity:1"
         d="m 253.21452,124.07511 -0.31006,1.70533 -5.68441,-1.08521 -6.97632,-5.94279 7.9065,1.34359 5.06429,3.97908"
         id="path231411" />
      <path
         style="fill:#9ba0a9;fill-opacity:1;stroke:none;stroke-width:0.264583px;stroke-linecap:butt;stroke-linejoin:miter;stroke-opacity:1"
         d="m 267.89062,112.55127 2.99723,4.75423 -0.51676,7.13135 -1.86034,3.30729 -7.44142,-0.93018 -7.85481,-2.73885 1.757,-1.34358 2.79052,-7.9065 3.04891,-2.6355 7.07967,0.36174"
         id="path246321" />
      <path
         style="fill:#818b92;fill-opacity:1;stroke:none;stroke-width:0.264583px;stroke-linecap:butt;stroke-linejoin:miter;stroke-opacity:1"
         d="m 253.21452,124.07511 2.53214,4.80591 1.96371,2.48047 -0.31006,2.53215 12.76409,4.49585 -1.65365,-10.64535 -7.44142,-0.93018 -7.85481,-2.73885"
         id="path250607" />
      <path
         style="fill:#7b8499;fill-opacity:1;stroke:none;stroke-width:0.264583px;stroke-linecap:butt;stroke-linejoin:miter;stroke-opacity:1"
         d="m 259.36628,98.367738 8.18512,4.531032 7.30816,2.55785 -3.97171,11.84888 -2.99723,-4.75423 -0.15502,-3.514 -7.44141,-2.89388 -4.87431,-4.12158 3.9464,-3.654072"
         id="path264922" />
      <path
         style="fill:#a79b9b;fill-opacity:1;stroke:none;stroke-width:0.264583px;stroke-linecap:butt;stroke-linejoin:miter;stroke-opacity:1"
         d="m 259.36628,98.367738 5.70036,-1.096222 4.45797,-2.046285 13.15469,-2.192443 -7.81974,12.423832 -7.30816,-2.55785 -8.18512,-4.531032"
         id="path272172" />
      <path
         style="fill:#afadac;fill-opacity:1;stroke:none;stroke-width:0.264583px;stroke-linecap:butt;stroke-linejoin:miter;stroke-opacity:1"
         d="m 282.6793,93.032788 6.21191,14.908602 -8.03897,5.5542 -5.99268,-8.03897 7.81974,-12.423832"
         id="path282037" />
      <path
         style="fill:#777c92;fill-opacity:1;stroke:none;stroke-width:0.264583px;stroke-linecap:butt;stroke-linejoin:miter;stroke-opacity:1"
         d="m 288.89121,107.94139 4.53107,13.95857 2.92325,9.93908 -10.23141,-8.11204 -5.70037,-4.7503 -9.5259,-1.6712 3.97171,-11.84888 5.99268,8.03897 8.03897,-5.5542"
         id="path287805" />
      <path
         style="fill:#7c8b93;fill-opacity:1;stroke:none;stroke-width:0.264583px;stroke-linecap:butt;stroke-linejoin:miter;stroke-opacity:1"
         d="m 296.34553,131.83904 -10.96222,4.89647 -10.30451,-1.90012 -4.9144,3.5541 -1.65365,-10.64535 1.86034,-3.30729 0.51676,-7.13135 9.5259,1.6712 z"
         id="path292559" />
      <path
         style="fill:#98a6bc;fill-opacity:1;stroke:none;stroke-width:0.264583px;stroke-linecap:butt;stroke-linejoin:miter;stroke-opacity:1"
         d="m 282.6793,93.032788 1.02311,-1.315493 2.63094,0.950061 4.0195,-3.069423 1.38853,1.023141 2.70402,-0.730816 2.11936,1.534713 4.89646,5.481113 3.28869,7.088906 6.06576,7.96589 6.79659,3.72715 4.45796,3.28867 0.21924,2.55785 3.581,1.24239 1.09622,10.01217 -1.75395,3.06942 -7.45432,-2.48477 -8.11204,0.65773 -3.80024,-2.70401 -4.82338,-0.0731 -4.67722,0.58465 -7.45432,-23.89765 -6.21191,-14.908602"
         id="path297937" />
      <path
         style="fill:#a5a8b8;fill-opacity:1;stroke:none;stroke-width:0.264583px;stroke-linecap:butt;stroke-linejoin:miter;stroke-opacity:1"
         d="m 304.74991,103.99499 3.94639,-10.377574 2.3386,-5.554196 -4.38488,-1.388549 -2.48476,0.95006 -1.38856,-0.438489 -2.77709,1.242386 -2.33863,-0.365408 -3.21558,1.827038 2.11936,1.534713 4.89646,5.48111 3.28869,7.088909"
         id="path305226" />
      <path
         style="fill:#6b7991;fill-opacity:1;stroke:none;stroke-width:0.264583px;stroke-linecap:butt;stroke-linejoin:miter;stroke-opacity:1"
         d="m 310.81567,111.96088 7.45432,-5.33496 -0.36542,-15.931766 -6.86967,-2.630934 -6.28499,15.93177 6.06576,7.96589"
         id="path311306" />
      <path
         style="fill:#5f6670;fill-opacity:1;stroke:none;stroke-width:0.264583px;stroke-linecap:butt;stroke-linejoin:miter;stroke-opacity:1"
         d="m 318.26999,106.62592 3.80023,12.35078 -4.45796,-3.28867 -6.79659,-3.72715 7.45432,-5.33496"
         id="path1008" />
      <path
         style="fill:#6e7174;fill-opacity:1;stroke:none;stroke-width:0.264583px;stroke-linecap:butt;stroke-linejoin:miter;stroke-opacity:1"
         d="m 317.90457,90.694152 14.52311,4.105809 22.75827,9.024829 7.29835,5.96424 -8.47551,8.7894 -18.04966,-8.86788 -17.68914,-3.08463 -0.36542,-15.931768"
         id="path4631" />
      <path
         style="fill:#7b7d71;fill-opacity:1;stroke:none;stroke-width:0.264583px;stroke-linecap:butt;stroke-linejoin:miter;stroke-opacity:1"
         d="m 325.87046,122.77694 8.12676,3.96308 9.88808,-2.0404 10.12349,-6.12119 -18.04966,-8.86788 -17.68914,-3.08463 3.80023,12.35078 0.21924,2.55785 3.581,1.24239"
         id="path10555" />
      <path
         style="fill:#757571;fill-opacity:1;stroke:none;stroke-width:0.264583px;stroke-linecap:butt;stroke-linejoin:miter;stroke-opacity:1"
         d="m 362.4843,109.78903 6.43508,3.68841 -0.0785,10.67284 0.23543,12.00695 -11.61455,-10.35893 -3.453,-7.21987 8.47551,-8.7894"
         id="path21613" />
      <path
         style="fill:#5f6068;fill-opacity:1;stroke:none;stroke-width:0.264583px;stroke-linecap:butt;stroke-linejoin:miter;stroke-opacity:1"
         d="m 369.07631,136.15723 -0.0784,11.45761 -10.51589,-8.71092 -1.02021,-13.10562 11.61455,10.35893"
         id="path26205" />
      <path
         style="fill:#283b55;fill-opacity:1;stroke:none;stroke-width:0.264583px;stroke-linecap:butt;stroke-linejoin:miter;stroke-opacity:1"
         d="m 368.99791,147.61484 -8.78945,-0.31391 -1.72644,-8.39701 z"
         id="path30257" />
      <path
         style="fill:#717074;fill-opacity:1;stroke:none;stroke-width:0.264583px;stroke-linecap:butt;stroke-linejoin:miter;stroke-opacity:1"
         d="m 358.48202,138.90392 c -2.04044,0.70629 -4.94408,2.0404 -4.94408,2.0404 l -0.70628,6.43509 7.3768,-0.0785 -1.72644,-8.39701"
         id="path34348" />
      <path
         style="fill:#89857b;fill-opacity:1;stroke:none;stroke-width:0.264583px;stroke-linecap:butt;stroke-linejoin:miter;stroke-opacity:1"
         d="m 357.46182,125.7983 -5.96427,10.28045 -6.43511,3.60994 -10.43742,0.78476 -9.41229,-4.61492 1.75395,-3.06942 -1.09622,-10.01217 8.12676,3.96308 9.88808,-2.0404 10.12346,-6.12119 3.45306,7.21987"
         id="path39180" />
      <path
         style="fill:#646369;fill-opacity:1;stroke:none;stroke-width:0.264583px;stroke-linecap:butt;stroke-linejoin:miter;stroke-opacity:1"
         d="m 357.46182,125.7983 1.0202,13.1056 -4.94408,2.04042 -0.70628,6.43509 -1.25563,2.98212 -9.80962,0.31391 -8.31852,1.02019 -0.0785,-4.23774 1.25561,-6.98444 10.43742,-0.78476 6.43511,-3.60994 5.96427,-10.28045"
         id="path44864" />
      <path
         style="fill:#65666c;fill-opacity:1;stroke:none;stroke-width:0.264583px;stroke-linecap:butt;stroke-linejoin:miter;stroke-opacity:1"
         d="m 351.57603,150.36153 -2.58974,3.06059 -8.94636,1.49106 -5.96424,1.25563 -0.6278,-4.47318 8.31852,-1.02019 z"
         id="path69233" />
      <path
         style="fill:#5b6266;fill-opacity:1;stroke:none;stroke-width:0.264583px;stroke-linecap:butt;stroke-linejoin:miter;stroke-opacity:1"
         d="m 368.99791,147.61484 -0.23548,9.49569 -20.16852,-0.0785 0.39238,-3.60994 2.58974,-3.06059 1.25563,-2.98212 7.3768,-0.0785 8.78945,0.31391"
         id="path75898" />
      <path
         style="fill:#5e6e84;fill-opacity:1;stroke:none;stroke-width:0.264583px;stroke-linecap:butt;stroke-linejoin:miter;stroke-opacity:1"
         d="m 334.07569,156.16881 -13.65496,6.19967 -6.12119,-3.60993 -11.45762,-9.4957 -2.98212,-3.76688 6.67054,-1.96192 3.53145,1.17715 4.23775,-2.98212 6.59204,3.21755 5.57186,-1.49106 6.90595,4.00232 0.0785,4.23774 0.6278,4.47318"
         id="path86307" />
      <path
         style="fill:#706f70;fill-opacity:1;stroke:none;stroke-width:0.264583px;stroke-linecap:butt;stroke-linejoin:miter;stroke-opacity:1"
         d="m 333.36939,147.45789 1.2556,-6.98444 -9.41226,-4.61492 -7.45432,-2.48477 -8.11204,0.65773 -3.80024,-2.70401 -9.5006,0.51156 3.51427,13.65693 6.67054,-1.96192 3.53145,1.17715 4.23775,-2.98212 6.59204,3.21755 5.57186,-1.49106 6.90595,4.00232"
         id="path89735" />
      <path
         style="fill:#747880;fill-opacity:1;stroke:none;stroke-width:0.264583px;stroke-linecap:butt;stroke-linejoin:miter;stroke-opacity:1"
         d="m 320.42073,162.36848 -5.33641,1.88344 -5.17948,-3.53145 -11.5361,-6.04272 -9.57416,-2.43278 -9.73111,-1.72649 -9.26025,-1.96192 -8.78942,-1.88344 -13.81191,-8.55397 -9.10331,-3.84536 -5.26089,-3.60405 0.4814,-4.57925 9.8702,5.01262 7.95817,2.22208 6.25285,0.56845 12.76409,4.49585 4.9144,-3.5541 10.30451,1.90012 10.96222,-4.89647 3.51427,13.65693 2.98212,3.76688 11.45762,9.4957 z"
         id="path96205" />
      <path
         style="fill:#6d6b67;fill-opacity:1;stroke:none;stroke-width:0.264583px;stroke-linecap:butt;stroke-linejoin:miter;stroke-opacity:1"
         d="m 315.08432,164.25192 -11.45762,4.15927 -3.21754,1.17715 -5.25796,-4.23774 -14.36124,-5.10099 -12.08543,-5.33643 -8.55397,-3.13907 0.86324,-5.10099 27.78078,5.57185 9.57416,2.43278 11.5361,6.04272 z"
         id="path106881" />
      <path
         style="fill:#616d81;fill-opacity:1;stroke:none;stroke-width:0.264583px;stroke-linecap:butt;stroke-linejoin:miter;stroke-opacity:1"
         d="m 260.15056,151.77411 -10.67285,-4.70861 -14.20429,-8.16158 -2.43573,-8.23418 5.26089,3.60405 9.10331,3.84536 13.81191,8.55397 -0.86324,5.10099"
         id="path111713" />
      <path
         style="fill:#949084;fill-opacity:1;stroke:none;stroke-width:0.264583px;stroke-linecap:butt;stroke-linejoin:miter;stroke-opacity:1"
         d="m 300.40916,169.58834 -31.7831,4.15927 -16.40166,1.88344 -6.35662,-18.36356 -19.14833,-5.33642 -10.8298,-2.27583 2.43278,-12.47781 -1.85499,-7.89624 5.62727,2.7771 6.57734,0.14616 4.16564,-1.53471 2.43573,8.23418 14.20429,8.16158 10.67285,4.70861 8.55397,3.13907 12.08543,5.33643 14.36124,5.10099 5.25796,4.23774"
         id="path117988" />
      <path
         style="fill:#7a7773;fill-opacity:1;stroke:none;stroke-width:0.264583px;stroke-linecap:butt;stroke-linejoin:miter;stroke-opacity:1"
         d="m 215.88965,149.65524 7.7692,16.08774 2.19735,8.55397 13.73344,1.72649 12.63476,-0.39239 -6.35662,-18.36356 -19.14833,-5.33642 -10.8298,-2.27583"
         id="path125121" />
      <path
         style="fill:#737c7e;fill-opacity:1;stroke:none;stroke-width:0.264583px;stroke-linecap:butt;stroke-linejoin:miter;stroke-opacity:1"
         d="m 188.5503,123.21543 -2.2464,10.03816 -2.19735,6.90596 9.26026,16.79403 4.70861,10.35894 -4.86556,7.92615 32.64634,-0.94172 -2.19735,-8.55397 -7.7692,-16.08774 2.43278,-12.47781 -1.85499,-7.89624 -27.91714,-6.06576"
         id="path133658" />
      <path
         style="fill:#70768e;fill-opacity:1;stroke:none;stroke-width:0.264583px;stroke-linecap:butt;stroke-linejoin:miter;stroke-opacity:1"
         d="m 193.20986,175.23867 h -11.06523 l -16.32317,-13.89039 -0.62782,-11.61456 -1.96192,-12.79172 13.41953,5.49337 6.51358,3.29603 10.20198,11.22218 4.70861,10.35894 -4.86556,7.92615"
         id="path152077" />
      <path
         style="fill:#6e6b6c;fill-opacity:1;stroke:none;stroke-width:0.264583px;stroke-linecap:butt;stroke-linejoin:miter;stroke-opacity:1"
         d="m 193.36681,156.95358 -10.20198,-11.22218 -6.51358,-3.29603 -13.41953,-5.49337 4.31623,-2.90364 6.43509,-0.47086 14.56726,-10.35207 -4.44375,16.94412 9.26026,16.79403"
         id="path155739" />
      <path
         style="fill:#aea1a2;fill-opacity:1;stroke:none;stroke-width:0.264583px;stroke-linecap:butt;stroke-linejoin:miter;stroke-opacity:1"
         d="m 163.23172,136.942 -11.37913,-0.86325 3.22638,-7.23605 7.30815,-2.70401 7.45431,2.33861 18.70887,-5.26187 -14.56726,10.35207 -6.43509,0.47086 z"
         id="path159401" />
      <path
         style="fill:#545a56;fill-opacity:1;stroke:none;stroke-width:0.264583px;stroke-linecap:butt;stroke-linejoin:miter;stroke-opacity:1"
         d="m 182.14463,175.23867 -40.5725,-0.39238 24.24933,-13.49801 16.32317,13.89039"
         id="path167626" />
      <path
         style="fill:#847e7c;fill-opacity:1;stroke:none;stroke-width:0.264583px;stroke-linecap:butt;stroke-linejoin:miter;stroke-opacity:1"
         d="m 163.23172,136.942 -9.65264,5.57185 -7.84768,6.27814 11.53609,1.64802 7.92615,-0.70629 -1.96192,-12.79172"
         id="path173308" />
      <path
         style="fill:#7e8396;fill-opacity:1;stroke:none;stroke-width:0.264583px;stroke-linecap:butt;stroke-linejoin:miter;stroke-opacity:1"
         d="m 141.57213,174.84629 3.29602,-10.28046 -3.76688,-8.4755 4.63013,-7.29834 11.53609,1.64802 7.92615,-0.70629 0.62782,11.61456 z"
         id="path178569" />
      <path
         style="fill:#928d89;fill-opacity:1;stroke:none;stroke-width:0.264583px;stroke-linecap:butt;stroke-linejoin:miter;stroke-opacity:1"
         d="m 145.7314,148.79199 -10.51589,-6.82748 -6.98443,-1.88344 -2.19736,-2.43278 11.50568,-5.37076 8.62362,-7.16198 8.91595,3.72715 -3.22638,7.23605 11.37913,0.86325 -9.65264,5.57185 -7.84768,6.27814"
         id="path184298" />
      <path
         style="fill:#645f63;fill-opacity:1;stroke:none;stroke-width:0.264583px;stroke-linecap:butt;stroke-linejoin:miter;stroke-opacity:1"
         d="m 141.10127,156.09033 -6.12119,2.51126 -7.06291,-3.76688 h -5.33642 l -7.76921,12.39933 9.57417,4.08079 10.43741,3.76689 6.74901,-0.23543 3.29602,-10.28046 -3.76688,-8.4755"
         id="path191392" />
      <path
         style="fill:#7b7a78;fill-opacity:1;stroke:none;stroke-width:0.264583px;stroke-linecap:butt;stroke-linejoin:miter;stroke-opacity:1"
         d="m 127.91717,154.83471 7.29834,-12.8702 10.51589,6.82748 -4.63013,7.29834 -6.12119,2.51126 z"
         id="path197394" />
      <path
         style="fill:#787b8c;fill-opacity:1;stroke:none;stroke-width:0.264583px;stroke-linecap:butt;stroke-linejoin:miter;stroke-opacity:1"
         d="m 122.58075,154.83471 -11.69305,2.74668 -3.89637,-10.39523 10.13528,-5.33936 8.90711,-4.19851 2.19736,2.43278 6.98443,1.88344 -7.29834,12.8702 h -5.33642"
         id="path209047" />
      <path
         style="fill:#6e6d6c;fill-opacity:1;stroke:none;stroke-width:0.264583px;stroke-linecap:butt;stroke-linejoin:miter;stroke-opacity:1"
         d="m 134.82312,175.08172 -13.1841,4.94403 -32.489387,-5.65032 1.883442,-6.4351 23.778465,-0.70629 9.57417,4.15927 10.43741,3.68841"
         id="path226283" />
      <path
         style="fill:#76746d;fill-opacity:1;stroke:none;stroke-width:0.264583px;stroke-linecap:butt;stroke-linejoin:miter;stroke-opacity:1"
         d="m 110.8877,157.58139 c -2.27582,2.27583 -19.854628,10.35894 -19.854628,10.35894 l 23.778468,-0.70629 7.76921,-12.39933 -11.69305,2.74668"
         id="path247990" />
      <path
         style="fill:#8b9497;fill-opacity:1;stroke:none;stroke-width:0.264583px;stroke-linecap:butt;stroke-linejoin:miter;stroke-opacity:1"
         d="m 110.8877,157.58139 -3.89637,-10.39523 -15.639445,6.13885 -0.318813,14.61532 12.909438,-6.19966 6.94519,-4.15928"
         id="path253212" />
      <path
         style="fill:#595a5f;fill-opacity:1;stroke:none;stroke-width:0.264583px;stroke-linecap:butt;stroke-linejoin:miter;stroke-opacity:1"
         d="m 121.63902,180.02575 -32.489387,3.45298 -2e-6,-9.1033 32.489389,5.65032"
         id="path264859" />
      <path
         style="fill:#454d59;fill-opacity:1;stroke:none;stroke-width:0.264583px;stroke-linecap:butt;stroke-linejoin:miter;stroke-opacity:1"
         d="m 55.640043,183.63569 14.989067,-9.96656 7.062911,0.78477 1.883445,7.92616 z"
         id="path269925" />
      <path
         style="fill:#69665f;fill-opacity:1;stroke:none;stroke-width:0.264583px;stroke-linecap:butt;stroke-linejoin:miter;stroke-opacity:1"
         d="m 79.575466,182.38006 9.574165,1.09867 v -9.1033 l -11.457612,0.0785 1.883447,7.92616"
         id="path272573" />
      <path
         style="fill:#777462;fill-opacity:1;stroke:none;stroke-width:0.264583px;stroke-linecap:butt;stroke-linejoin:miter;stroke-opacity:1"
         d="m 70.62911,173.66913 20.40396,-5.7288 -1.883439,6.4351 -11.457612,0.0785 -7.062909,-0.7848"
         id="path277444" />
      <path
         style="fill:#6d6d6a;fill-opacity:1;stroke:none;stroke-width:0.264583px;stroke-linecap:butt;stroke-linejoin:miter;stroke-opacity:1"
         d="m 68.623539,160.26775 5.45855,6.33848 4.551653,2.6682 12.399328,-1.3341 0.318815,-14.61532 -22.728346,6.94274"
         id="path281886" />
      <path
         style="fill:#5e5e63;fill-opacity:1;stroke:none;stroke-width:0.264583px;stroke-linecap:butt;stroke-linejoin:miter;stroke-opacity:1"
         d="m 91.03307,167.94033 c -2.468684,0.14333 -20.40396,5.7288 -20.40396,5.7288 l -11.75266,-9.9138 9.747089,-3.48758 5.45855,6.33848 4.551651,2.6682 z"
         id="path288623" />
      <path
         style="fill:#35425b;fill-opacity:1;stroke:none;stroke-width:0.264583px;stroke-linecap:butt;stroke-linejoin:miter;stroke-opacity:1"
         d="m 58.876448,163.75533 -4.272841,-1.38729 -7.602331,6.60349 6.215044,4.93874 17.41279,-0.24114 -11.752662,-9.9138"
         id="path297681" />
      <path
         style="fill:#616765;fill-opacity:1;stroke:none;stroke-width:0.264583px;stroke-linecap:butt;stroke-linejoin:miter;stroke-opacity:1"
         d="m 68.623539,160.26775 -26.820915,-6.65041 -9.354434,3.36175 14.553086,11.99244 7.602331,-6.60349 4.272841,1.38729 9.747091,-3.48758"
         id="path304307" />
      <path
         style="fill:#5c5a5b;fill-opacity:1;stroke:none;stroke-width:0.264583px;stroke-linecap:butt;stroke-linejoin:miter;stroke-opacity:1"
         d="m 55.640043,183.63569 14.989067,-9.96656 -17.41279,0.24114 -7.879789,2.27515 -4.883248,7.71331 z"
         id="path308515" />
      <path
         style="fill:#6d7063;fill-opacity:1;stroke:none;stroke-width:0.264583px;stroke-linecap:butt;stroke-linejoin:miter;stroke-opacity:1"
         d="m 40.453283,183.89873 -11.375752,-0.22196 17.923745,-14.70524 6.215044,4.93874 -7.879789,2.27515 -4.883248,7.71331"
         id="path320028" />
      <path
         style="fill:#3e4b5d;fill-opacity:1;stroke:none;stroke-width:0.264583px;stroke-linecap:butt;stroke-linejoin:miter;stroke-opacity:1"
         d="m 29.077531,183.67677 -16.702933,-0.6659 5.882096,-9.48904 4.050877,-7.04742 9.156094,-3.44047 6.825451,4.99423 1.498269,3.99539 -10.154941,6.93643 -0.554913,4.71678"
         id="path330743" />
      <path
         style="fill:#5c6260;fill-opacity:1;stroke:none;stroke-width:0.264583px;stroke-linecap:butt;stroke-linejoin:miter;stroke-opacity:1"
         d="m 29.077531,183.67677 0.554913,-4.71678 10.154941,-6.93643 -1.498269,-3.99539 -6.825451,-4.99423 0.984525,-6.05485 14.553086,11.99244 -17.923745,14.70524"
         id="path335569" />
      <path
         style="fill:#696969;fill-opacity:1;stroke:none;stroke-width:0.264583px;stroke-linecap:butt;stroke-linejoin:miter;stroke-opacity:1"
         d="m 31.463665,163.03394 0.984525,-6.05485 -1.607793,-0.65774 -13.08159,4.23873 -11.4737969,2.55785 -3.8733202,0.36541 0.1964092,21.6362 9.7664989,-2.10867 9.932973,-16.53646 9.156094,-3.44047"
         id="path341103" />
      <path
         style="fill:#b4b899;fill-opacity:1;stroke:none;stroke-width:0.264583px;stroke-linecap:butt;stroke-linejoin:miter;stroke-opacity:1"
         d="m 300.40916,169.58834 67.83223,-0.6723 0.52104,-11.80551 -20.16852,-0.0785 0.39238,-3.60991 -14.9106,2.74669 -13.65496,6.19967 -5.33641,1.88344 -14.67516,5.33642"
         id="path365008" />
      <path
         style="fill:#6b6e62;fill-opacity:1;stroke:none;stroke-width:0.264583px;stroke-linecap:butt;stroke-linejoin:miter;stroke-opacity:1"
         d="m 121.63902,180.02575 246.82436,0.65448 -0.22199,-11.76419 -67.83223,0.6723 -48.18476,6.04271 -12.63476,0.39239 -13.73344,-1.72649 -32.64634,0.94172 h -11.06523 l -40.5725,-0.39238 -6.74901,0.23543 -13.1841,4.94403"
         id="path377133" />
      <path
         style="fill:#6d7775;fill-opacity:1;stroke:none;stroke-width:0.264583px;stroke-linecap:butt;stroke-linejoin:miter;stroke-opacity:1"
         d="m 12.374598,183.01087 5.85435,-9.21158 4.078623,-7.32488 -4.550301,7.35262 -5.382672,9.18384"
         id="path392446" />
      <path
         style="fill:#454d59;fill-opacity:1;stroke:none;stroke-width:0.264583px;stroke-linecap:butt;stroke-linejoin:miter;stroke-opacity:1"
         d="m 70.62911,173.66913 20.40396,-5.7288 c 0,0 -0.667047,0.0589 -0.784762,0.0589 -0.117714,0 -9.711502,2.60935 -9.711502,2.60935 l -9.907696,3.06059"
         id="path410888" />
      <path
         style="fill:#576786;fill-opacity:1;stroke:none;stroke-width:0.264583px;stroke-linecap:butt;stroke-linejoin:miter;stroke-opacity:1"
         d="m 75.712446,132.13137 9.866492,3.35881 11.18098,4.68016 -11.220217,-4.05235 -9.827255,-3.98662"
         id="path427089" />
      <path
         style="fill:#6b6e62;fill-opacity:1;stroke:none;stroke-width:0.264583px;stroke-linecap:butt;stroke-linejoin:miter;stroke-opacity:1"
         d="m 106.99133,147.18616 10.48411,-5.65517 8.55828,-3.8827 -9.00221,4.52086 c 0,0 -10.04018,5.01701 -10.04018,5.01701"
         id="path438043" />
      <path
         style="fill:#595c69;fill-opacity:1;stroke:none;stroke-width:0.264583px;stroke-linecap:butt;stroke-linejoin:miter;stroke-opacity:1"
         d="m 110.8877,157.58139 -6.94519,4.15928 6.26355,-3.31252 0.68164,-0.84676"
         id="path449290" />
      <path
         style="fill:#5e5e63;fill-opacity:1;stroke:none;stroke-width:0.264583px;stroke-linecap:butt;stroke-linejoin:miter;stroke-opacity:1"
         d="m 91.033072,167.94033 5.633069,-2.88095 7.276369,-3.31871 -7.13764,3.76264 -5.771798,2.43702"
         id="path466676" />
      <path
         style="fill:#7f7a81;fill-opacity:1;stroke:none;stroke-width:0.264583px;stroke-linecap:butt;stroke-linejoin:miter;stroke-opacity:1"
         d="m 184.10655,140.15955 2.19735,-6.90596 2.2464,-10.03816 z"
         id="path478704" />
      <path
         style="fill:#566268;fill-opacity:1;stroke:none;stroke-width:0.264583px;stroke-linecap:butt;stroke-linejoin:miter;stroke-opacity:1"
         d="m 296.34553,131.83904 4.67722,-0.58466 4.82338,0.0731 -9.5006,0.51156"
         id="path490426" />
    </g>
  </g>
</svg>
