<?xml version="1.0" encoding="UTF-8" standalone="no"?>
<!-- Created with Inkscape (http://www.inkscape.org/) -->

<svg
   width="49.644764mm"
   height="13.60938mm"
   viewBox="0 0 49.644764 13.60938"
   version="1.1"
   id="svg5"
   inkscape:version="1.1 (c68e22c387, 2021-05-23)"
   sodipodi:docname="owl.svg"
   xmlns:inkscape="http://www.inkscape.org/namespaces/inkscape"
   xmlns:sodipodi="http://sodipodi.sourceforge.net/DTD/sodipodi-0.dtd"
   xmlns="http://www.w3.org/2000/svg"
   xmlns:svg="http://www.w3.org/2000/svg">
  <sodipodi:namedview
     id="namedview7"
     pagecolor="#ffffff"
     bordercolor="#666666"
     borderopacity="1.0"
     inkscape:pageshadow="2"
     inkscape:pageopacity="0.0"
     inkscape:pagecheckerboard="0"
     inkscape:document-units="mm"
     showgrid="false"
     inkscape:zoom="2.6654321"
     inkscape:cx="145.37981"
     inkscape:cy="92.480315"
     inkscape:window-width="1920"
     inkscape:window-height="1017"
     inkscape:window-x="1912"
     inkscape:window-y="-8"
     inkscape:window-maximized="1"
     inkscape:current-layer="layer1" />
  <defs
     id="defs2" />
  <g
     inkscape:label="Layer 1"
     inkscape:groupmode="layer"
     id="layer1"
     transform="translate(-38.309972,-108.34237)">
    <g
       id="g3211777"
       style="display:inline"
       transform="translate(11.539762,-149.84132)">
      <path
         style="fill:#decbb9;fill-opacity:1;stroke:none;stroke-width:0.264583px;stroke-linecap:butt;stroke-linejoin:miter;stroke-opacity:1"
         d="m 58.373697,269.34583 -1.058333,-0.76068 -0.959115,-1.38906 -0.396875,-1.25677 0.03307,-1.28984 0.760677,-0.69454 1.289844,-0.3638 1.322917,0.0661 0.23151,1.78594 -0.03307,1.9513 -0.264583,0.39687 -0.595313,0.0992 v 0.62839 z"
         id="path2356977" />
      <path
         style="fill:#695e58;fill-opacity:1;stroke:none;stroke-width:0.264583px;stroke-linecap:butt;stroke-linejoin:miter;stroke-opacity:1"
         d="m 56.918489,265.31093 h 0.727604 l 0.363802,0.33073 -0.09922,0.46302 z"
         id="path2368433" />
      <path
         style="fill:#a57c60;fill-opacity:1;stroke:none;stroke-width:0.264583px;stroke-linecap:butt;stroke-linejoin:miter;stroke-opacity:1"
         d="m 59.299739,267.79135 0.02479,0.51268 -0.380338,0.4961 -0.570508,0.5457 0.330729,-0.8269 v -0.62839 l 0.595313,-0.0992"
         id="path2378618" />
      <path
         style="fill:#b99572;fill-opacity:1;stroke:none;stroke-width:0.264583px;stroke-linecap:butt;stroke-linejoin:miter;stroke-opacity:1"
         d="m 58.373681,269.34583 -0.413395,0.0662 -1.529623,-0.91776 -0.967382,-1.48003 -0.148829,-0.88469 0.06615,-1.24023 0.380339,-0.88472 0.669726,-0.43821 0.859896,-0.32246 0.959115,-0.0909 0.967383,0.0909 0.148825,0.41336 -1.322917,-0.0661 -1.289846,0.3638 -0.760677,0.69454 -0.03307,1.28984 0.396875,1.25677 0.959115,1.38906 1.058317,0.76068"
         id="path2385166" />
      <path
         style="fill:#ead9c7;fill-opacity:1;stroke:none;stroke-width:0.264583px;stroke-linecap:butt;stroke-linejoin:miter;stroke-opacity:1"
         d="m 58.373681,269.34588 1.306396,-0.59536 0.33073,-1.53789 0.23151,-1.68672 0.08268,-0.42995 0.297656,-0.42995 0.08268,-0.9095 -1.339453,-0.0992 0.231507,1.78588 -0.03307,1.9513 -0.264583,0.39688 0.02479,0.51268 -0.380338,0.4961 -0.570495,0.5457"
         id="path2397018" />
      <path
         style="fill:#b99572;fill-opacity:1;stroke:none;stroke-width:0.264583px;stroke-linecap:butt;stroke-linejoin:miter;stroke-opacity:1"
         d="m 59.217059,263.24393 1.124477,0.0661 0.363796,0.44649 -1.339447,-0.0992 -0.148826,-0.41336"
         id="path2407367" />
      <path
         style="fill:#947967;fill-opacity:1;stroke:none;stroke-width:0.264583px;stroke-linecap:butt;stroke-linejoin:miter;stroke-opacity:1"
         d="m 60.341536,263.31003 -1.455209,-0.89298 -2.149739,-0.34726 -1.554427,0.24805 1.984375,0.28112 2.050523,0.64497 1.124477,0.0661"
         id="path2415007" />
      <path
         style="fill:#9f8e7e;fill-opacity:1;stroke:none;stroke-width:0.264583px;stroke-linecap:butt;stroke-linejoin:miter;stroke-opacity:1"
         d="m 58.249676,263.15303 -1.08314,-0.55407 -1.984375,-0.28112 -2.331641,0.62838 0.529167,0.64492 -0.181901,0.84336 c 0,0 1.389062,2.79466 1.488281,2.82774 0.09922,0.0331 1.744596,1.23203 1.744596,1.23203 l -0.967382,-1.48003 -0.148829,-0.88469 0.06615,-1.24023 0.380338,-0.88472 0.669727,-0.43821 0.859896,-0.32246 0.959114,-0.0909"
         id="path2418669" />
      <path
         style="fill:#ad937e;fill-opacity:1;stroke:none;stroke-width:0.264583px;stroke-linecap:butt;stroke-linejoin:miter;stroke-opacity:1"
         d="m 53.197786,264.4345 -1.35599,0.77722 -1.53789,1.2733 -0.578776,1.45521 -0.529167,1.15755 0.115755,0.74414 0.909505,0.0992 0.644922,-0.28112 0.810287,0.21498 2.61276,-0.0331 1.703255,0.0331 0.942578,-0.11576 1.025261,-0.34721 -1.529623,-0.91776 -1.777669,-1.16589 -1.455208,-2.89388"
         id="path2424203" />
      <path
         style="fill:#3e3029;fill-opacity:1;stroke:none;stroke-width:0.264583px;stroke-linecap:butt;stroke-linejoin:miter;stroke-opacity:1"
         d="m 52.85052,262.94622 -0.711068,0.13229 1.190625,-0.87643 4.53099,-2.57969 1.86862,-0.76067 2.530078,-0.678 -4.332552,2.03399 -1.256771,1.15755 0.06615,0.69453 -1.554427,0.24805 -2.331641,0.62838"
         id="path2462664" />
      <path
         style="fill:#995d31;fill-opacity:1;stroke:none;stroke-width:0.264583px;stroke-linecap:butt;stroke-linejoin:miter;stroke-opacity:1"
         d="m 56.73659,262.06979 2.149737,0.34726 -0.01654,-0.59531 1.174088,-1.20716 2.976563,-1.67018 1.157552,-0.46302 0.264583,-0.26459 -2.182812,-0.0331 -4.332552,2.03399 -1.256771,1.15755 0.06615,0.69453"
         id="path2465975" />
      <path
         style="fill:#e3dbdb;fill-opacity:1;stroke:none;stroke-width:0.264583px;stroke-linecap:butt;stroke-linejoin:miter;stroke-opacity:1"
         d="m 58.886327,262.41705 1.769401,-1.4552 2.530078,-1.60404 1.736329,-0.5457 1.653645,-0.33073 1.86862,0.24804 0.975651,-0.19843 -4.977479,-0.3142 -0.264583,0.26459 -1.157552,0.46302 -2.976563,1.67018 -1.174088,1.20716 0.01654,0.59531"
         id="path2470885" />
      <path
         style="fill:#5d5046;fill-opacity:1;stroke:none;stroke-width:0.264583px;stroke-linecap:butt;stroke-linejoin:miter;stroke-opacity:1"
         d="m 69.420051,258.53099 2.38125,0.56224 2.728516,1.22369 1.422135,1.55443 0.463021,2.06706 -0.148828,0.84336 -0.661458,-0.23151 -1.802474,-2.10013 -1.703256,-1.81901 -1.901692,-1.07487 -1.752865,-0.82683 z"
         id="path2483684" />
      <path
         style="fill:#6f665e;fill-opacity:1;stroke:none;stroke-width:0.264583px;stroke-linecap:butt;stroke-linejoin:miter;stroke-opacity:1"
         d="m 75.604687,264.55026 -0.28112,1.0914 -1.141016,-0.62838 -1.405599,-1.9513 -1.339453,-1.75287 -1.604036,-1.28984 -1.389063,-1.28985 3.654555,1.9017 3.505732,3.91914"
         id="path2489608" />
      <path
         style="fill:#6d6864;fill-opacity:1;stroke:none;stroke-width:0.264583px;stroke-linecap:butt;stroke-linejoin:miter;stroke-opacity:1"
         d="m 74.182551,265.01328 -0.562239,1.12448 -1.389063,-0.69453 -2.315104,-3.78685 -1.471745,-2.92696 1.389063,1.28984 1.604036,1.28985 2.745052,3.70417"
         id="path2495688" />
      <path
         style="fill:#7c7976;fill-opacity:1;stroke:none;stroke-width:0.264583px;stroke-linecap:butt;stroke-linejoin:miter;stroke-opacity:1"
         d="m 72.231249,265.44323 -0.926042,0.52916 -1.289843,-0.87643 -1.570964,-6.36654 1.471745,2.92696 z"
         id="path2501534" />
      <path
         style="fill:#6d645d;fill-opacity:1;stroke:none;stroke-width:0.264583px;stroke-linecap:butt;stroke-linejoin:miter;stroke-opacity:1"
         d="m 70.015364,265.09596 -0.529167,0.1819 -1.322917,-0.5457 -1.587502,-6.25078 1.868622,0.24804 1.570964,6.36654"
         id="path2509174" />
      <path
         style="fill:#5e5550;fill-opacity:1;stroke:none;stroke-width:0.264583px;stroke-linecap:butt;stroke-linejoin:miter;stroke-opacity:1"
         d="m 68.163278,264.73216 -1.10794,0.0496 -0.661459,-0.59531 0.181899,-5.70508 1.5875,6.25078"
         id="path2512719" />
      <path
         style="fill:#5e5955;fill-opacity:1;stroke:none;stroke-width:0.264583px;stroke-linecap:butt;stroke-linejoin:miter;stroke-opacity:1"
         d="m 66.393877,264.18645 -0.744138,-0.0827 -1.752865,-0.39687 1.025261,-4.89479 1.653643,-0.33073 -0.181901,5.70507"
         id="path2518448" />
      <path
         style="fill:#6a645e;fill-opacity:1;stroke:none;stroke-width:0.264583px;stroke-linecap:butt;stroke-linejoin:miter;stroke-opacity:1"
         d="m 63.896874,263.70688 -1.107942,-0.0992 -0.975652,-0.74414 -0.727604,0.34726 -0.909505,-0.89296 -1.289844,0.0992 1.769401,-1.4552 2.530076,-1.60404 1.736331,-0.5457 -1.025261,4.89477"
         id="path2522500" />
      <path
         style="fill:#c5c2b9;fill-opacity:1;stroke:none;stroke-width:0.264583px;stroke-linecap:butt;stroke-linejoin:miter;stroke-opacity:1"
         d="m 52.139452,263.07851 -0.08203,0.85683 -0.888669,0.95882 -1.239465,0.1637 -1.356391,0.7016 -5.14494,-4.86431 -1.473321,-0.98222 -3.601458,0.25725 2.619242,-1.0056 4.303038,-0.44434 1.262848,-0.0468 1.894274,1.54348 3.706873,2.86156"
         id="path2533430" />
      <path
         style="fill:#654831;fill-opacity:1;stroke:none;stroke-width:0.264583px;stroke-linecap:butt;stroke-linejoin:miter;stroke-opacity:1"
         d="m 50.303906,266.48502 -1.107943,2.61276 -1.488353,0.076 -1.169305,-0.60803 1.028989,-1.54348 -0.491109,-0.95885 1.496711,-0.304 1.356391,-0.7016 1.239465,-0.1637 0.888669,-0.95882 0.08203,-0.85683 0.711071,-0.13229 0.529164,0.64492 -0.181901,0.84334 -1.35599,0.77724 -1.53789,1.2733"
         id="path2542723" />
      <path
         style="fill:#685a4f;fill-opacity:1;stroke:none;stroke-width:0.264583px;stroke-linecap:butt;stroke-linejoin:miter;stroke-opacity:1"
         d="m 47.70761,269.17377 -0.748355,1.96448 -0.982216,0.37417 -0.724968,0.28065 -1.075759,-0.30404 -0.163703,-0.86526 0.420949,0.304 0.280633,-0.28064 0.935442,-0.21045 -0.09354,-0.56129 0.584652,-0.0467 0.257247,-0.35081 0.140316,-0.91207 z"
         id="path2550012" />
      <path
         style="fill:#1e0f0d;fill-opacity:1;stroke:none;stroke-width:0.264583px;stroke-linecap:butt;stroke-linejoin:miter;stroke-opacity:1"
         d="m 46.140745,269.82869 -0.152855,-0.49112 -0.396875,-0.17364 -0.355534,0.34726 -0.347265,0.47956 -0.08268,0.2894 0.446485,-0.37208 0.413411,-0.38859 0.475316,0.30921"
         id="path2553645" />
      <path
         style="fill:#746b64;fill-opacity:1;stroke:none;stroke-width:0.264583px;stroke-linecap:butt;stroke-linejoin:miter;stroke-opacity:1"
         d="m 47.076185,266.06341 -1.617462,0.53737 -5.076692,0.69453 2.017448,1.45521 1.190625,0.94258 0.79375,0.13229 0.504362,0.16536 0.702799,-0.82682 0.396875,0.17364 0.152858,0.49112 0.257244,-0.35081 0.140316,-0.91207 1.028986,-1.54355 -0.491109,-0.95885"
         id="path2560359" />
      <path
         style="fill:#755f4e;fill-opacity:1;stroke:none;stroke-width:0.264583px;stroke-linecap:butt;stroke-linejoin:miter;stroke-opacity:1"
         d="m 45.275457,258.72023 -3.00827,-0.40422 c 0,0 -1.918229,0.19844 -2.083594,0.21498 -0.165364,0.0165 -3.108854,0.3638 -3.108854,0.3638 l -4.547526,1.42213 -2.397786,1.4056 -1.570964,0.74414 -1.223698,1.30638 -0.198437,0.678 0.942578,0.11575 3.141927,-2.21588 2.596224,-1.17409 2.480469,-0.57878 2.055651,-0.42786 2.619242,-1.0056 4.303038,-0.44435"
         id="path2570722" />
      <path
         style="fill:#a69688;fill-opacity:1;stroke:none;stroke-width:0.264583px;stroke-linecap:butt;stroke-linejoin:miter;stroke-opacity:1"
         d="m 28.078906,264.56679 c 0,0 -1.372526,1.00873 -1.30638,1.02526 0.06615,0.0164 1.124479,0.0164 1.124479,0.0164 l 4.001823,-2.69544 2.116666,-1.20717 4.337683,-1.53581 -4.53612,1.00664 -2.596224,1.17409 -3.141927,2.21588"
         id="path2576490" />
      <path
         style="fill:#9f958c;fill-opacity:1;stroke:none;stroke-width:0.264583px;stroke-linecap:butt;stroke-linejoin:miter;stroke-opacity:1"
         d="m 27.897005,265.60846 -0.876432,1.12461 1.074869,-0.16537 1.86862,-1.55442 1.769401,-1.2237 1.405599,-0.90951 1.802474,-1.00872 3.411641,-1.70117 -4.337683,1.53566 -2.116666,1.20716 -4.001823,2.69546"
         id="path2580113" />
      <path
         style="fill:#8f867f;fill-opacity:1;stroke:none;stroke-width:0.264583px;stroke-linecap:butt;stroke-linejoin:miter;stroke-opacity:1"
         d="m 28.095442,266.5677 -0.281119,0.52917 0.677994,0.0496 1.306381,-0.64492 1.091406,-0.71107 1.240234,-0.46302 1.372526,-0.67799 0.876432,-0.57878 0.380339,-0.0331 1.488281,-1.25677 2.105261,-2.61068 -5.214115,2.70989 -3.175,2.13321 -1.86862,1.55442"
         id="path2591855" />
      <path
         style="fill:#645b55;fill-opacity:1;stroke:none;stroke-width:0.264583px;stroke-linecap:butt;stroke-linejoin:miter;stroke-opacity:1"
         d="m 38.353177,260.17018 3.601458,-0.25725 1.473321,0.98222 5.14494,4.86425 -1.496711,0.30401 -0.989076,0.28932 -0.826823,-0.51263 -0.380339,-0.34726 -0.429948,0.0331 -0.628385,-0.84336 -0.810286,0.0164 -0.363802,-0.57877 -0.744141,-0.13229 -0.115755,-0.69454 -0.711068,0.11576 -0.529167,-0.42995 -0.545703,-0.0331 -0.248047,-0.33073 -0.727604,0.16536 -0.380338,-0.31419 -0.496094,-0.14883 -0.611849,-0.19843 -0.760677,0.0828 1.576094,-2.0319"
         id="path2601532" />
      <path
         style="fill:#995d31;fill-opacity:1;stroke:none;stroke-width:0.264583px;stroke-linecap:butt;stroke-linejoin:miter;stroke-opacity:1"
         d="m 57.166536,262.59896 1.08314,0.55407 0.967383,0.0909 -2.050523,-0.64497"
         id="path3086949" />
      <path
         style="fill:#654831;fill-opacity:1;stroke:none;stroke-width:0.264583px;stroke-linecap:butt;stroke-linejoin:miter;stroke-opacity:1"
         d="m 53.197786,264.4345 1.455208,2.89386 1.777669,1.16591 -1.699122,-1.28164 z"
         id="path3096535" />
      <path
         style="fill:#746b64;fill-opacity:1;stroke:none;stroke-width:0.264583px;stroke-linecap:butt;stroke-linejoin:miter;stroke-opacity:1"
         d="m 49.195963,269.09778 0.508495,-1.33532 0.599448,-1.27744 -0.508498,1.37253 -0.599445,1.24023"
         id="path3105745" />
      <path
         style="fill:#755f4e;fill-opacity:1;stroke:none;stroke-width:0.264583px;stroke-linecap:butt;stroke-linejoin:miter;stroke-opacity:1"
         d="m 36.777083,262.20207 -0.529167,0.57875 2.105261,-2.61064 -1.576094,2.03189"
         id="path3125277" />
      <path
         style="fill:#755f4e;fill-opacity:1;stroke:none;stroke-width:0.264583px;stroke-linecap:butt;stroke-linejoin:miter;stroke-opacity:1"
         d="m 33.139062,262.88003 1.827279,-0.84331 3.386836,-1.86654 -3.618347,1.71771 -1.595768,0.99214"
         id="path3135095" />
      <path
         style="fill:#755f4e;fill-opacity:1;stroke:none;stroke-width:0.264583px;stroke-linecap:butt;stroke-linejoin:miter;stroke-opacity:1"
         d="m 29.964062,265.01322 1.604037,-1.17403 1.570963,-0.95916 -1.496549,1.11626 -1.678451,1.01693"
         id="path3142228" />
      <path
         style="fill:#645b55;fill-opacity:1;stroke:none;stroke-width:0.264583px;stroke-linecap:butt;stroke-linejoin:miter;stroke-opacity:1"
         d="m 33.817057,261.17667 2.448912,-0.50954 2.087208,-0.49695 -2.133981,0.36833 -2.402139,0.63816"
         id="path3155941" />
      <path
         style="fill:#7c7976;fill-opacity:1;stroke:none;stroke-width:0.264583px;stroke-linecap:butt;stroke-linejoin:miter;stroke-opacity:1"
         d="m 72.098955,260.63112 -1.90169,-1.07487 -1.752865,-0.82683 z"
         id="path3168526" />
      <path
         style="fill:#5d5046;fill-opacity:1;stroke:none;stroke-width:0.264583px;stroke-linecap:butt;stroke-linejoin:miter;stroke-opacity:1"
         d="m 74.182551,265.01328 -1.393367,-2.00169 -1.351685,-1.70248 1.287373,1.77848 z"
         id="path3181360" />
      <path
         style="fill:#7c7976;fill-opacity:1;stroke:none;stroke-width:0.264583px;stroke-linecap:butt;stroke-linejoin:miter;stroke-opacity:1"
         d="m 72.098955,260.63112 1.795221,1.86013 1.710511,2.05901 -1.880058,-2.02978 -1.625674,-1.88936"
         id="path3197520" />
    </g>
  </g>
</svg>
