<?xml version="1.0" encoding="UTF-8" standalone="no"?>
<!-- Created with Inkscape (http://www.inkscape.org/) -->

<svg
   width="369.12924mm"
   height="279.19009mm"
   viewBox="0 0 369.12924 279.19009"
   version="1.1"
   id="svg5"
   inkscape:version="1.1 (c68e22c387, 2021-05-23)"
   sodipodi:docname="river.svg"
   xmlns:inkscape="http://www.inkscape.org/namespaces/inkscape"
   xmlns:sodipodi="http://sodipodi.sourceforge.net/DTD/sodipodi-0.dtd"
   xmlns="http://www.w3.org/2000/svg"
   xmlns:svg="http://www.w3.org/2000/svg">
  <sodipodi:namedview
     id="namedview7"
     pagecolor="#ffffff"
     bordercolor="#666666"
     borderopacity="1.0"
     inkscape:pageshadow="2"
     inkscape:pageopacity="0.0"
     inkscape:pagecheckerboard="0"
     inkscape:document-units="mm"
     showgrid="false"
     inkscape:zoom="0.66635802"
     inkscape:cx="479.47198"
     inkscape:cy="350.41223"
     inkscape:window-width="1920"
     inkscape:window-height="1017"
     inkscape:window-x="1912"
     inkscape:window-y="-8"
     inkscape:window-maximized="1"
     inkscape:current-layer="layer1" />
  <defs
     id="defs2" />
  <g
     inkscape:label="Layer 1"
     inkscape:groupmode="layer"
     id="layer1"
     transform="translate(21.770507,-56.15495)">
    <g
       id="g342528"
       sodipodi:insensitive="true"
       style="display:inline"
       transform="translate(-21.770507,-127.00988)">
      <path
         style="fill:#7a8968;fill-opacity:1;stroke:none;stroke-width:0.264583px;stroke-linecap:butt;stroke-linejoin:miter;stroke-opacity:1"
         d="M 0.44393175,461.2451 0,425.73056 44.393175,407.08542 101.66037,392.8796 l 29.2995,-17.31333 26.19197,-12.43009 -15.09368,44.83711 -12.87402,15.98154 -39.509925,12.87402 z"
         id="path1126906" />
      <path
         style="fill:#0d5d6d;fill-opacity:1;stroke:none;stroke-width:0.264583px;stroke-linecap:butt;stroke-linejoin:miter;stroke-opacity:1"
         d="m 0,425.73056 1.3317953,-51.94001 29.2994957,-17.31335 5.771113,-28.85557 22.196589,0.88786 7.546839,-6.21503 -11.542225,-15.09369 4.883248,-14.20579 15.537614,0.44391 12.874021,-13.76187 12.87402,12.43007 10.21043,-4.43931 20.86479,14.20582 h 15.98155 l 3.55145,19.08905 7.99077,26.63592 -25.74804,-5.32717 -6.65898,13.31793 L 113.2026,366.24371 98.10892,354.70147 66.589764,364.9119 38.622062,383.55703 0,425.73056"
         id="path1138622" />
      <path
         style="fill:#020106;fill-opacity:1;stroke:none;stroke-width:0.264583px;stroke-linecap:butt;stroke-linejoin:miter;stroke-opacity:1"
         d="m 159.3715,347.59857 -2.21966,15.53761 -26.19197,12.43009 -29.2995,17.31333 L 44.393175,407.08542 0,425.73056 38.622062,383.55703 66.589764,364.9119 98.10892,354.70147 l 15.09368,11.54224 13.76188,-10.65438 6.65898,-13.31793 z"
         id="path1141504" />
      <path
         style="fill:#216d6c;fill-opacity:1;stroke:none;stroke-width:0.264583px;stroke-linecap:butt;stroke-linejoin:miter;stroke-opacity:1"
         d="m 66.14583,322.29446 -11.542223,-15.09369 4.883248,-14.20579 -7.102906,5.77109 -13.53992,-12.31911 -9.1006,-5.99308 -5.771114,-0.6659 -21.6416733,15.31567 -0.9988464,78.6869 29.2994957,-17.31335 5.771113,-28.85557 22.196589,0.88786 z"
         id="path1158850" />
      <path
         style="fill:#7ca5b8;fill-opacity:1;stroke:none;stroke-width:0.264583px;stroke-linecap:butt;stroke-linejoin:miter;stroke-opacity:1"
         d="m 0.44393175,461.2451 101.66037825,0.44392 14.64974,-5.32717 7.54684,1.77572 19.533,-4.43931 18.64513,-9.76651 35.95848,-1.77573 22.64052,-3.1075 7.54684,-13.31796 -2.21966,-22.19658 -6.21504,-7.54685 -18.64514,2.66359 -21.30873,2.21967 -38.17813,7.1029 -12.87402,15.98154 L 0.44393175,461.2451"
         id="path1188137" />
      <path
         style="fill:#d7c4ba;fill-opacity:1;stroke:none;stroke-width:0.264583px;stroke-linecap:butt;stroke-linejoin:miter;stroke-opacity:1"
         d="m 102.10431,461.68902 h 76.13429 l 16.20351,-8.65666 3.99539,-10.87634 -35.95848,1.77573 -18.64513,9.76651 -19.533,4.43931 -7.54684,-1.77572 z"
         id="path1195385" />
      <path
         style="fill:#53838d;fill-opacity:1;stroke:none;stroke-width:0.264583px;stroke-linecap:butt;stroke-linejoin:miter;stroke-opacity:1"
         d="m 178.2386,461.68902 71.25105,0.44395 1.3318,-22.86249 -14.64975,7.54684 -15.09368,-0.6659 H 207.5381 l -9.1006,-3.9954"
         id="path1201426" />
      <path
         style="fill:#d2dee4;fill-opacity:1;stroke:none;stroke-width:0.264583px;stroke-linecap:butt;stroke-linejoin:miter;stroke-opacity:1"
         d="m 198.4375,442.15602 22.64052,-3.1075 12.87402,-9.54455 16.86941,9.76651 -14.64975,7.54684 -28.6336,-0.6659 -9.1006,-3.9954"
         id="path1204308" />
      <path
         style="fill:#4e8c87;fill-opacity:1;stroke:none;stroke-width:0.264583px;stroke-linecap:butt;stroke-linejoin:miter;stroke-opacity:1"
         d="m 221.07802,439.04852 7.54684,-13.31796 -2.21966,-22.19658 -6.21504,-7.54685 17.09137,0.88787 8.87863,-0.88787 -4.66128,17.53532 29.96539,7.10289 -20.64282,18.64514 -16.86941,-9.76651 -12.87402,9.54455"
         id="path1209023" />
      <path
         style="fill:#568984;fill-opacity:1;stroke:none;stroke-width:0.264583px;stroke-linecap:butt;stroke-linejoin:miter;stroke-opacity:1"
         d="m 271.46427,420.62534 22.41857,17.75728 4.21735,23.52839 -48.61054,0.22196 1.3318,-22.86249 20.64282,-18.64514"
         id="path1212919" />
      <path
         style="fill:#979b7c;fill-opacity:1;stroke:none;stroke-width:0.264583px;stroke-linecap:butt;stroke-linejoin:miter;stroke-opacity:1"
         d="m 293.88284,438.38262 30.85325,1.10982 9.98847,-4.88323 17.31332,1.55374 2.66359,-3.55145 13.98386,4.66129 -0.22195,7.54685 -19.53303,-1.55377 -15.09366,-0.88786 -9.32256,6.88094 -16.20351,-3.55145 -14.42778,-7.32488"
         id="path1216893" />
      <path
         style="fill:#5a674a;fill-opacity:0.945098;stroke:none;stroke-width:0.264583px;stroke-linecap:butt;stroke-linejoin:miter;stroke-opacity:1"
         d="m 293.88284,438.38262 14.42778,7.32488 16.20351,3.55145 9.32256,-6.88094 34.62669,2.44163 0.22195,17.53528 -70.58514,-0.44391 z"
         id="path1228357" />
      <path
         style="fill:#dbe5e7;fill-opacity:1;stroke:none;stroke-width:0.264583px;stroke-linecap:butt;stroke-linejoin:miter;stroke-opacity:1"
         d="m 354.70147,432.6115 -25.96999,-13.09598 -12.65206,7.54685 -19.08908,-2.44163 -11.76419,5.32717 -13.76188,-9.32257 22.41857,17.75728 30.85325,1.10982 9.98847,-4.88323 17.31332,1.55374 2.66359,-3.55145"
         id="path1234749" />
      <path
         style="fill:#6f947d;fill-opacity:1;stroke:none;stroke-width:0.264583px;stroke-linecap:butt;stroke-linejoin:miter;stroke-opacity:1"
         d="m 246.16016,395.98713 56.82326,10.87634 25.74806,12.65205 -12.65206,7.54685 -19.08908,-2.44163 -11.76419,5.32717 -13.76188,-9.32257 -29.96539,-7.10289 4.66128,-17.53532"
         id="path1240205" />
      <path
         style="fill:#6199a6;fill-opacity:1;stroke:none;stroke-width:0.264583px;stroke-linecap:butt;stroke-linejoin:miter;stroke-opacity:1"
         d="m 368.68533,437.27279 -0.22195,-33.07291 -33.07292,-20.1989 -25.74806,1.33178 -63.48224,10.65437 56.82326,10.87634 25.74806,12.65205 25.96999,13.09598 13.98386,4.66129"
         id="path1245973" />
      <path
         style="fill:#d7c1b0;fill-opacity:1;stroke:none;stroke-width:0.264583px;stroke-linecap:butt;stroke-linejoin:miter;stroke-opacity:1"
         d="m 368.46338,404.19988 0.66587,-25.08216 -31.74111,-16.64745 -12.20814,10.65438 -1.55374,4.43931 -23.30643,1.99771 -0.44391,3.1075 9.76648,2.66359 25.74806,-1.33178 33.07292,20.1989"
         id="path1256705" />
      <path
         style="fill:#5b8d95;fill-opacity:1;stroke:none;stroke-width:0.264583px;stroke-linecap:butt;stroke-linejoin:miter;stroke-opacity:1"
         d="m 323.62626,377.56396 -18.64513,-10.65435 -31.29719,-9.98847 -7.54684,-0.44394 -9.98847,13.53991 -22.41856,1.10985 -14.42778,1.10982 -5.10521,8.65667 31.96308,15.09368 63.48224,-10.65437 -9.76648,-2.66359 0.44391,-3.1075 z"
         id="path1268713" />
      <path
         style="fill:#baa49e;fill-opacity:1;stroke:none;stroke-width:0.264583px;stroke-linecap:butt;stroke-linejoin:miter;stroke-opacity:1"
         d="m 246.16016,395.98713 -8.87863,0.88787 -17.70347,-9.0427 -2.98212,4.08078 -3.29602,-2.51124 -4.70861,4.55165 11.59885,2.03364 17.09137,0.88787"
         id="path1281761" />
      <path
         style="fill:#acbdd4;fill-opacity:1;stroke:none;stroke-width:0.264583px;stroke-linecap:butt;stroke-linejoin:miter;stroke-opacity:1"
         d="m 237.28153,396.875 8.87863,-0.88787 -31.96308,-15.09368 -10.78524,0.97462 -10.51589,-1.72649 -7.69073,0.47085 -11.92847,0.31391 -13.1841,-2.19734 -2.94081,-15.59282 -15.09368,44.83711 38.17813,-7.1029 39.95387,-4.88326 -11.59885,-2.03364 4.70861,-4.55165 3.29602,2.51124 2.98212,-4.08078 z"
         id="path1285657" />
      <path
         style="fill:#e0f0f0;fill-opacity:1;stroke:none;stroke-width:0.264583px;stroke-linecap:butt;stroke-linejoin:miter;stroke-opacity:1"
         d="m 219.30229,372.23678 15.81417,-10.77269 -10.20198,-6.12119 8.47549,-3.45297 22.44436,1.25563 10.30277,3.33164 -9.98847,13.53991 -36.84634,2.21967"
         id="path1299225" />
      <path
         style="fill:#75665d;fill-opacity:1;stroke:none;stroke-width:0.264583px;stroke-linecap:butt;stroke-linejoin:miter;stroke-opacity:1"
         d="m 214.19708,380.89345 5.10521,-8.65667 -9.61231,5.23658 -7.37682,-3.92385 -8.16158,0.31391 -3.45298,2.35431 -5.33642,-2.19734 -8.31854,2.98212 -3.76689,3.92383 19.6192,-0.78476 10.51589,1.72649 10.78524,-0.97462"
         id="path1313607" />
      <path
         style="fill:#6a95c3;fill-opacity:1;stroke:none;stroke-width:0.264583px;stroke-linecap:butt;stroke-linejoin:miter;stroke-opacity:1"
         d="m 157.15184,363.13618 11.41631,-3.71248 20.40396,2.82517 13.34105,11.30064 -8.16158,0.31391 -3.45298,2.35431 -5.33642,-2.19734 -8.31854,2.98212 -3.76689,3.92383 -13.1841,-2.19734 -2.94081,-15.59282"
         id="path1317659" />
      <path
         style="fill:#84a5bd;fill-opacity:1;stroke:none;stroke-width:0.264583px;stroke-linecap:butt;stroke-linejoin:miter;stroke-opacity:1"
         d="m 188.97211,362.24887 35.94237,-6.90597 10.20198,6.12119 -15.81417,10.77269 -9.61231,5.23658 -7.37682,-3.92385 -13.34105,-11.30064"
         id="path1322647" />
      <path
         style="fill:#aeb9cf;fill-opacity:1;stroke:none;stroke-width:0.264583px;stroke-linecap:butt;stroke-linejoin:miter;stroke-opacity:1"
         d="m 159.3715,347.59857 28.9728,0.99534 0.62781,13.65496 -20.40396,-2.82517 -11.41631,3.71248 2.21966,-15.53761"
         id="path1325997" />
      <path
         style="fill:#a9c8cf;fill-opacity:1;stroke:none;stroke-width:0.264583px;stroke-linecap:butt;stroke-linejoin:miter;stroke-opacity:1"
         d="m 255.83433,353.14556 -12.71324,-3.60995 h -15.06754 l 2.19735,-2.98212 -8.16158,-2.35428 -21.50264,-0.78478 -12.24238,5.17948 0.62781,13.65496 35.94237,-6.90597 8.47549,-3.45297 22.44436,1.25563"
         id="path1330556" />
      <path
         style="fill:#c3aea5;fill-opacity:1;stroke:none;stroke-width:0.264583px;stroke-linecap:butt;stroke-linejoin:miter;stroke-opacity:1"
         d="m 230.2509,346.55349 3.13907,-2.51124 9.73112,5.49336 h -15.06754 l 2.19735,-2.98212"
         id="path1336207" />
      <path
         style="fill:#91b4d8;fill-opacity:1;stroke:none;stroke-width:0.264583px;stroke-linecap:butt;stroke-linejoin:miter;stroke-opacity:1"
         d="m 200.58668,343.41443 -5.96424,-3.92383 3.45298,-7.37682 -24.17085,-5.33643 5.17946,7.53377 -3.13907,2.35431 h -19.68098 l 3.10752,10.93314 28.9728,0.99534 12.24238,-5.17948"
         id="path1345955" />
      <path
         style="fill:#0c606d;fill-opacity:1;stroke:none;stroke-width:0.264583px;stroke-linecap:butt;stroke-linejoin:miter;stroke-opacity:1"
         d="m 369.12925,379.11772 -31.74111,-16.64745 6.65411,-17.17238 12.87018,0.3139 -5.3364,-16.95098 16.95098,-5.02253 0.60224,55.47944"
         id="path1362496" />
      <path
         style="fill:#e7cfc2;fill-opacity:1;stroke:none;stroke-width:0.264583px;stroke-linecap:butt;stroke-linejoin:miter;stroke-opacity:1"
         d="m 273.68394,356.92114 -0.42775,-6.7577 5.0225,-6.59206 20.40398,7.21987 14.75362,3.29602 -8.45516,12.82234 -31.29719,-9.98847"
         id="path1365723" />
      <path
         style="fill:#41534f;fill-opacity:1;stroke:none;stroke-width:0.264583px;stroke-linecap:butt;stroke-linejoin:miter;stroke-opacity:1"
         d="m 313.43629,354.08727 23.95185,8.383 -12.20814,10.65438 -1.55374,4.43931 -18.64513,-10.65435 8.45516,-12.82234"
         id="path1368839" />
      <path
         style="fill:#c4abb2;fill-opacity:1;stroke:none;stroke-width:0.264583px;stroke-linecap:butt;stroke-linejoin:miter;stroke-opacity:1"
         d="m 273.25619,350.16344 -17.42186,2.98212 10.30277,3.33164 7.54684,0.44394 z"
         id="path1371565" />
      <path
         style="fill:#988c80;fill-opacity:1;stroke:none;stroke-width:0.264583px;stroke-linecap:butt;stroke-linejoin:miter;stroke-opacity:1"
         d="m 233.38997,344.04225 9.10331,-7.53377 15.2245,2.66819 20.56091,4.39471 -5.0225,6.59206 -17.42186,2.98212 -12.71324,-3.60995 -9.73112,-5.49336"
         id="path1374681" />
      <path
         style="fill:#0c5472;fill-opacity:1;stroke:none;stroke-width:0.264583px;stroke-linecap:butt;stroke-linejoin:miter;stroke-opacity:1"
         d="m 298.68267,350.79125 14.75362,3.29602 23.95185,8.383 -21.28364,-18.27106 -11.45759,-9.73114 -26.36822,9.10331 z"
         id="path1387616" />
      <path
         style="fill:#14514b;fill-opacity:1;stroke:none;stroke-width:0.264583px;stroke-linecap:butt;stroke-linejoin:miter;stroke-opacity:1"
         d="m 304.64691,334.46807 -14.28279,-0.6278 -9.10331,-11.77153 -4.86555,-16.00925 5.49338,-15.06754 6.27814,-2.19737 -3.29602,-20.87483 10.67284,-4.86555 1.41259,-11.14371 10.82979,-2.98211 29.60216,113.54189 -32.74123,-28.0022"
         id="path1394554" />
      <path
         style="fill:#020106;fill-opacity:1;stroke:none;stroke-width:0.264583px;stroke-linecap:butt;stroke-linejoin:miter;stroke-opacity:1"
         d="m 337.38814,362.47027 6.65411,-17.17238 12.87018,0.3139 -5.3364,-16.95098 16.95098,-5.02253 -19.46225,-24.0139 -15.22449,11.45762 3.54787,51.38827"
         id="path1399230" />
      <path
         style="fill:#030a21;fill-opacity:1;stroke:none;stroke-width:0.264583px;stroke-linecap:butt;stroke-linejoin:miter;stroke-opacity:1"
         d="m 337.38814,362.47027 -29.60216,-113.54189 13.81191,-8.31854 15.69535,2.19735 12.5563,10.67284 2.04039,26.0543 -2.82517,20.09005 -15.22449,11.45762 3.54787,51.38827"
         id="path1401488" />
      <path
         style="fill:#14514b;fill-opacity:1;stroke:none;stroke-width:0.264583px;stroke-linecap:butt;stroke-linejoin:miter;stroke-opacity:1"
         d="m 337.29324,242.80719 17.89271,-6.27815 13.65496,-12.39933 -0.3139,99.50857 -19.46225,-24.0139 2.82517,-20.09005 -2.04039,-26.0543 -12.5563,-10.67284"
         id="path1408114" />
      <path
         style="fill:#41534f;fill-opacity:1;stroke:none;stroke-width:0.264583px;stroke-linecap:butt;stroke-linejoin:miter;stroke-opacity:1"
         d="m 304.64691,334.46807 -26.36822,9.10331 -1.88343,-37.51189 4.86555,16.00925 9.10331,11.77153 14.28279,0.6278"
         id="path1425808" />
      <path
         style="fill:#030a21;fill-opacity:1;stroke:none;stroke-width:0.264583px;stroke-linecap:butt;stroke-linejoin:miter;stroke-opacity:1"
         d="m 278.27869,343.57138 -16.46993,-13.61909 -5.43817,-21.75266 11.54223,-19.08908 8.48244,16.94894 1.88343,37.51189"
         id="path1429236" />
      <path
         style="fill:#41534f;fill-opacity:1;stroke:none;stroke-width:0.264583px;stroke-linecap:butt;stroke-linejoin:miter;stroke-opacity:1"
         d="m 278.27869,343.57138 -35.78541,-7.0629 12.21257,-43.18058 1.66474,14.87173 5.43817,21.75266 16.46993,13.61909"
         id="path1432196" />
      <path
         style="fill:#14514b;fill-opacity:1;stroke:none;stroke-width:0.264583px;stroke-linecap:butt;stroke-linejoin:miter;stroke-opacity:1"
         d="m 254.70585,293.3279 -12.985,3.32949 -9.98847,7.21389 -2.88556,8.98962 1.10983,13.096 12.53663,10.55158 12.21257,-43.18058"
         id="path1438120" />
      <path
         style="fill:#216d6c;fill-opacity:1;stroke:none;stroke-width:0.264583px;stroke-linecap:butt;stroke-linejoin:miter;stroke-opacity:1"
         d="m 242.49328,336.50848 -12.24238,10.04501 -5.8434,-4.61504 -13.87286,-0.99886 -6.99193,-0.44392 -2.95603,2.91876 -5.96424,-3.92383 3.45298,-7.37682 5.46729,-9.93032 7.54684,-5.66012 3.32949,-8.76766 2.33064,6.99193 3.21851,-4.5503 3.55145,4.10639 1.22081,-5.43817 2.6636,2.21964 4.32833,-7.21389 -2.88556,8.98962 1.10983,13.096 12.53663,10.55158"
         id="path1444356" />
      <path
         style="fill:#91816b;fill-opacity:1;stroke:none;stroke-width:0.264583px;stroke-linecap:butt;stroke-linejoin:miter;stroke-opacity:1"
         d="m 230.2509,346.55349 -5.8434,-4.61504 -20.86479,-1.44278 -2.95603,2.91876 21.50264,0.78478 8.16158,2.35428"
         id="path1451980" />
      <path
         style="fill:#0c606d;fill-opacity:1;stroke:none;stroke-width:0.264583px;stroke-linecap:butt;stroke-linejoin:miter;stroke-opacity:1"
         d="m 211.08955,316.52334 -0.53632,-2.45922 -2.11887,0.78475 -1.88345,-2.74666 -1.49106,-2.66822 -3.68841,1.25563 -1.25563,3.6884 -3.45297,3.84537 -2.74669,3.92383 1.41258,3.84537 2.74669,6.12119 5.46729,-9.93032 7.54684,-5.66012"
         id="path1463690" />
      <path
         style="fill:#41534f;fill-opacity:1;stroke:none;stroke-width:0.264583px;stroke-linecap:butt;stroke-linejoin:miter;stroke-opacity:1"
         d="m 201.37144,310.68962 -2.3543,2.04039 -2.3543,-1.72649 -6.35662,5.33641 -3.45298,-3.21754 -4.70861,3.13906 -2.3543,-3.45297 -3.13908,5.49339 -2.66821,-4.70861 -0.0785,13.18409 24.17085,5.33643 -4.15927,-9.96656 6.19966,-7.7692 1.25563,-3.6884"
         id="path1466806" />
      <path
         style="fill:#988c80;fill-opacity:1;stroke:none;stroke-width:0.264583px;stroke-linecap:butt;stroke-linejoin:miter;stroke-opacity:1"
         d="m 179.08403,334.31112 -3.3745,-2.51124 -2.3543,2.51124 -2.82516,0.3139 -2.82517,-2.27581 -3.06059,1.80496 -1.33411,1.56953 -2.51126,-1.80496 -5.25794,0.6278 0.72298,2.11889 h 19.68098 l 3.13907,-2.35431"
         id="path1473393" />
      <path
         style="fill:#020106;fill-opacity:1;stroke:none;stroke-width:0.264583px;stroke-linecap:butt;stroke-linejoin:miter;stroke-opacity:1"
         d="m 147.82928,301.8736 2.3753,-4.05419 3.45297,5.96424 1.09868,-5.88576 4.15927,8.63245 2.27583,-2.58974 2.66821,5.10101 3.45298,-1.80499 3.60993,3.68843 3.06059,2.66821 -0.0785,13.18409 5.17946,7.53377 -3.3745,-2.51124 -2.3543,2.51124 -2.82516,0.3139 -2.82517,-2.27581 -3.06059,1.80496 -1.33411,1.56953 -2.51126,-1.80496 -5.25794,0.6278 -4.16027,-13.58389 -3.55145,-19.08905"
         id="path1478537" />
      <path
         style="fill:#000000;fill-opacity:1;stroke:none;stroke-width:0.264583px;stroke-linecap:butt;stroke-linejoin:miter;stroke-opacity:1"
         d="m 2.3306417,295.10365 -0.4471987,-65.48056 18.520522,13.34105 1.412583,-4.86556 4.551653,7.84768 4.865562,-5.96424 5.022514,13.96887 5.650328,-6.27814 0.627816,10.98675 5.179468,-5.17947 6.749002,10.20198 2.354305,-8.16158 0.627814,8.16158 3.296025,-3.92384 2.197352,5.96424 -3.451532,27.27257 -7.102906,5.77109 -13.53992,-12.31911 -9.1006,-5.99308 -5.771114,-0.6659 -21.6416733,15.31567"
         id="path1493351" />
      <path
         style="fill:#090f20;fill-opacity:1;stroke:none;stroke-width:0.264583px;stroke-linecap:butt;stroke-linejoin:miter;stroke-opacity:1"
         d="m 59.486855,292.99498 3.451532,-27.27257 5.807281,-4.86556 1.569535,7.69073 4.865563,-4.86557 2.825162,8.7894 7.062912,-8.00463 2.511258,6.90597 0.318389,8.30427 -12.874018,13.76187 -15.537614,-0.44391"
         id="path1499119" />
      <path
         style="fill:#bebed1;fill-opacity:1;stroke:none;stroke-width:0.264583px;stroke-linecap:butt;stroke-linejoin:miter;stroke-opacity:1"
         d="m 307.78598,248.92838 -14.9106,0.47086 -16.48012,5.65033 -13.65497,9.41721 -6.4351,6.90597 -11.77151,8.78938 -12.55629,10.82982 -7.84768,4.7086 -4.86556,4.3947 -7.69073,-1.25563 -11.30065,6.27814 -19.77615,1.09868 -8.47306,-2.56712 -10.83223,0.29128 2.66821,5.10101 3.45298,-1.80499 6.67052,6.35664 2.66821,4.70861 3.13908,-5.49339 2.3543,3.45297 4.70861,-3.13906 3.45298,3.21754 6.35662,-5.33641 2.3543,1.72649 2.3543,-2.04039 3.68841,-1.25563 3.37451,5.41488 2.11887,-0.78475 0.53632,2.45922 3.32949,-8.76766 2.33064,6.99193 3.21851,-4.5503 3.55145,4.10639 1.22081,-5.43817 2.6636,2.21964 4.32833,-7.21389 9.98847,-7.21389 12.985,-3.32949 1.66474,14.87173 11.54223,-19.08908 8.48244,16.94894 5.49338,-15.06754 6.27814,-2.19737 -3.29602,-20.87483 10.67284,-4.86555 1.41259,-11.14371 10.82979,-2.98211"
         id="path1506798" />
      <path
         style="fill:#14514b;fill-opacity:1;stroke:none;stroke-width:0.264583px;stroke-linecap:butt;stroke-linejoin:miter;stroke-opacity:1"
         d="m 150.20458,297.81941 -4.55166,-0.86322 -3.29602,-9.26029 -5.17947,4.55165 -2.19735,1.72652 -3.92384,-11.45763 -6.12119,-5.49338 -4.08079,8.63245 -5.96424,-13.49801 -5.49337,4.55166 1.25562,-8.16158 -4.7086,-4.0808 -3.13908,5.17946 -4.080789,-9.26025 -3.452977,2.66821 -3.139072,-1.88344 0.156953,-6.27815 -4.708607,3.76689 -2.197351,-7.69073 -5.493374,1.09868 1.098674,-5.49338 -5.336421,2.66822 -2.825165,-8.4755 -2.511258,8.94636 -6.905956,-15.85232 -11.457612,-6.90595 0.784768,12.71324 -5.179468,-14.75364 -2.982118,12.71324 -0.470861,-17.10794 -7.533772,-5.65033 -3.296026,2.98212 -6.435095,-17.5788 -3.766887,4.3947 -6.121189,-13.65496 -3.766886,9.26026 -5.9642363,-17.10794 -4.5516537,10.51589 -0.784768,35.94237 18.520522,13.34105 1.412583,-4.86556 4.551653,7.84768 4.865562,-5.96424 5.022514,13.96887 5.650328,-6.27814 0.627816,10.98675 5.179468,-5.17947 6.749002,10.20198 2.354305,-8.16159 0.627814,8.16159 3.296025,-3.92384 2.197352,5.96424 5.807281,-4.86556 1.569535,7.69073 4.865563,-4.86557 2.82516,8.7894 7.062912,-8.00463 2.511258,6.90597 0.318391,8.30427 12.874023,12.43007 10.21043,-4.43931 20.86479,14.20582 h 15.98155 l 2.3753,-4.05419"
         id="path1545356" />
      <path
         style="fill:#4e8c87;fill-opacity:1;stroke:none;stroke-width:0.264583px;stroke-linecap:butt;stroke-linejoin:miter;stroke-opacity:1"
         d="m 293.88284,438.38262 -8.65669,-8.43471 -13.76188,-9.32257 22.41857,17.75728"
         id="path1559590" />
      <path
         style="fill:#4e8c87;fill-opacity:1;stroke:none;stroke-width:0.264583px;stroke-linecap:butt;stroke-linejoin:miter;stroke-opacity:1"
         d="m 180.23629,400.87039 15.32787,-2.12982 24.626,-2.75344 -19.13262,2.91039 -20.82125,1.97287"
         id="path1565241" />
    </g>
  </g>
</svg>
