<?xml version="1.0" encoding="UTF-8" standalone="no"?>
<!-- Created with Inkscape (http://www.inkscape.org/) -->

<svg
   width="14.03057mm"
   height="36.017281mm"
   viewBox="0 0 14.03057 36.017281"
   version="1.1"
   id="svg5"
   inkscape:version="1.1 (c68e22c387, 2021-05-23)"
   sodipodi:docname="squirrel.svg"
   xmlns:inkscape="http://www.inkscape.org/namespaces/inkscape"
   xmlns:sodipodi="http://sodipodi.sourceforge.net/DTD/sodipodi-0.dtd"
   xmlns="http://www.w3.org/2000/svg"
   xmlns:svg="http://www.w3.org/2000/svg">
  <sodipodi:namedview
     id="namedview7"
     pagecolor="#ffffff"
     bordercolor="#666666"
     borderopacity="1.0"
     inkscape:pageshadow="2"
     inkscape:pageopacity="0.0"
     inkscape:pagecheckerboard="0"
     inkscape:document-units="mm"
     showgrid="false"
     inkscape:zoom="0.66635802"
     inkscape:cx="9.754516"
     inkscape:cy="-24.761464"
     inkscape:window-width="1920"
     inkscape:window-height="1017"
     inkscape:window-x="1912"
     inkscape:window-y="-8"
     inkscape:window-maximized="1"
     inkscape:current-layer="layer1" />
  <defs
     id="defs2" />
  <g
     inkscape:label="Layer 1"
     inkscape:groupmode="layer"
     id="layer1"
     transform="translate(-102.57295,-123.3443)">
    <g
       id="g3211805"
       style="display:inline"
       transform="translate(-164.26225,-481.72383)">
      <path
         style="fill:#592810;fill-opacity:1;stroke:none;stroke-width:0.264583px;stroke-linecap:butt;stroke-linejoin:miter;stroke-opacity:1"
         d="m 272.91559,612.2009 -0.93544,0.60804 -1.26285,-0.28065 -1.4967,-1.77733 -0.98224,-0.0468 -1.40316,-0.74835 0.3742,1.26283 1.73056,1.77737 1.30961,1.82411 1.68381,1.44992 2.10476,-0.28062 1.82409,-1.30963 0.23386,-1.30961 -1.1693,-0.46773 -1.21608,0.23386 z"
         id="path2909409" />
      <path
         style="fill:#7c3f26;fill-opacity:1;stroke:none;stroke-width:0.264583px;stroke-linecap:butt;stroke-linejoin:miter;stroke-opacity:1"
         d="m 274.78648,608.06155 -0.37417,-0.60804 0.11692,-1.09913 0.39756,-1.05239 -0.32739,-0.23386 -0.63143,1.14591 -0.42095,0.72498 -0.14031,0.81852 -0.1637,0.53787 -0.39759,0.65482 -0.37417,0.58465 -0.21048,1.09913 -0.0935,0.79513 0.74835,0.77176 0.79512,0.93541 1.21608,-0.23387 1.1693,0.46773 0.84191,-1.42653 0.0702,-1.52011 0.0468,-1.66039 -0.14033,-1.1693 v -1.7072 l -0.25723,-0.21047 -0.60804,0.88868 -0.18711,1.52009 z"
         id="path2926228" />
      <path
         style="fill:#445a59;fill-opacity:1;stroke:none;stroke-width:0.264583px;stroke-linecap:butt;stroke-linejoin:miter;stroke-opacity:1"
         d="m 275.79209,610.61065 0.25725,-0.79515 0.23384,-0.23384 0.25725,0.44431 -0.0702,0.67821 z"
         id="path2926263" />
      <path
         style="fill:#675244;fill-opacity:1;stroke:none;stroke-width:0.264583px;stroke-linecap:butt;stroke-linejoin:miter;stroke-opacity:1"
         d="m 274.23692,610.62232 0.49109,0.28064 -0.25725,0.54957 -0.42093,0.0351 -0.5262,-0.17539 -0.14031,-0.35079 0.24556,-0.26895 z"
         id="path2939634" />
      <path
         style="fill:#804344;fill-opacity:1;stroke:none;stroke-width:0.264583px;stroke-linecap:butt;stroke-linejoin:miter;stroke-opacity:1"
         d="m 274.72801,610.90296 -0.0468,0.7016 -0.50279,0.43262 -0.18708,0.16372 -0.40926,-0.33912 -0.14031,-0.16369 -0.0585,-0.73666 0.14031,0.35081 0.5262,0.17537 0.42093,-0.0351 0.25725,-0.54957"
         id="path2944310" />
      <path
         style="fill:#dbbbb0;fill-opacity:1;stroke:none;stroke-width:0.264583px;stroke-linecap:butt;stroke-linejoin:miter;stroke-opacity:1"
         d="m 274.72801,610.90296 0.42095,0.38587 0.0116,0.45603 -0.26894,0.33909 -0.22218,0.24556 -0.32739,0.18709 -0.39756,-0.0819 0.0468,-0.23384 -0.26892,0.21048 -0.28062,-0.16373 -0.18711,-0.21047 -0.0702,-0.3274 -0.0116,-0.49112 0.21043,-0.25723 h 5e-5 l 0.0584,0.73666 0.1403,0.16369 0.40926,0.33912 v 0 l 0.68988,-0.59634 0.0468,-0.7016"
         id="path2950897" />
      <path
         style="fill:#733e3a;fill-opacity:1;stroke:none;stroke-width:0.264583px;stroke-linecap:butt;stroke-linejoin:miter;stroke-opacity:1"
         d="m 274.66943,612.32951 -0.22204,0.40926 -0.63142,0.0351 -0.37423,-0.52625 0.28062,0.16372 0.26897,-0.21042 -0.0469,0.23379 0.39757,0.0819 z"
         id="path2956002" />
      <path
         style="fill:#93654b;fill-opacity:1;stroke:none;stroke-width:0.264583px;stroke-linecap:butt;stroke-linejoin:miter;stroke-opacity:1"
         d="m 275.86231,608.08494 0.29225,0.97051 0.88869,0.80682 0.0116,-1.09913 -0.14034,-1.1693 v -1.70722 l -0.25722,-0.21045 -0.60804,0.88868 -0.18712,1.52009"
         id="path2967191" />
      <path
         style="fill:#9c765c;fill-opacity:1;stroke:none;stroke-width:0.264583px;stroke-linecap:butt;stroke-linejoin:miter;stroke-opacity:1"
         d="m 274.78648,608.06155 -0.76004,0.50281 -0.78343,-0.26895 0.30401,-1.35641 1.05238,-1.87087 0.32739,0.23384 -0.39756,1.05241 -0.11692,1.09913 0.37417,0.60804"
         id="path2971984" />
      <path
         style="fill:#64473a;fill-opacity:1;stroke:none;stroke-width:0.264583px;stroke-linecap:butt;stroke-linejoin:miter;stroke-opacity:1"
         d="m 276.15456,609.05545 -1.0056,1.26286 -0.42095,0.58465 -0.49109,-0.28064 -0.60804,0.0702 -0.24561,0.26895 -0.21043,0.25718 0.0818,0.81851 0.18711,0.21048 -0.52615,-0.0467 -0.74832,-0.77176 0.30398,-1.89426 0.77176,-1.23947 0.78343,0.26895 0.76004,-0.50281 1.07564,0.0233 0.29244,0.97052"
         id="path2978142" />
      <path
         style="fill:#445a59;fill-opacity:1;stroke:none;stroke-width:0.264583px;stroke-linecap:butt;stroke-linejoin:miter;stroke-opacity:1"
         d="m 272.92728,610.1897 v -0.83021 l -0.25725,0.33909 -0.0584,0.37417 z"
         id="path2932462" />
      <path
         style="fill:#a5654c;fill-opacity:1;stroke:none;stroke-width:0.264583px;stroke-linecap:butt;stroke-linejoin:miter;stroke-opacity:1"
         d="m 277.04325,609.86227 0.10779,0.89527 0.99219,1.73633 0.0992,0.29766 -0.28112,1.2237 -1.0914,1.47174 -1.68672,1.37253 -1.37253,0.3638 -1.87729,-0.95327 2.10476,-0.28061 1.82409,-1.30964 0.23389,-1.30961 0.8419,-1.42655 z"
         id="path3007369" />
      <path
         style="fill:#97624f;fill-opacity:1;stroke:none;stroke-width:0.264583px;stroke-linecap:butt;stroke-linejoin:miter;stroke-opacity:1"
         d="m 278.24242,612.79153 0.47291,1.37379 0.77174,3.08695 0.28064,4.06919 -0.28064,2.43215 -0.0468,1.02899 -0.7016,2.24507 -1.05238,-3.46114 -0.53787,-2.24507 c 0,0 -0.79512,-0.4911 -0.91204,-0.70157 -0.11695,-0.21048 -0.88869,-0.95885 -0.88869,-0.95885 l -1.12252,-0.35079 -0.51451,0.0702 0.0999,-2.15712 1.37252,-0.3638 1.68675,-1.37253 1.09138,-1.47174 0.28112,-1.2237"
         id="path3017460" />
      <path
         style="fill:#884c32;fill-opacity:1;stroke:none;stroke-width:0.264583px;stroke-linecap:butt;stroke-linejoin:miter;stroke-opacity:1"
         d="m 278.73867,627.02767 -0.56237,1.95305 1.12448,7.30912 1.55442,2.64583 c 0,0 0.0661,1.15755 -0.13229,1.09141 -0.19843,-0.0661 -0.23151,0.46302 -0.23151,0.46302 l -0.7276,0.3638 -1.5875,0.23151 -1.19063,-0.72761 -0.56224,-0.62838 -0.49609,-7.11068 -0.56224,-3.175 -0.3638,-1.48828 1.62057,-1.32292 0.99219,-1.25677 0.49609,-0.49609 0.62852,2.14799"
         id="path3031361" />
      <path
         style="fill:#5b2c1b;fill-opacity:1;stroke:none;stroke-width:0.264583px;stroke-linecap:butt;stroke-linejoin:miter;stroke-opacity:1"
         d="m 273.71066,619.38045 -0.8591,0.86902 -0.42995,1.12448 -0.46302,0.46302 -1.19062,-0.39687 0.52916,0.99218 -0.56224,0.52917 0.56224,0.52917 0.16537,1.62057 0.52916,1.35599 1.09141,0.79375 0.69453,0.33073 0.82682,-0.59531 0.39688,0.95911 1.62057,-1.32294 0.99219,-1.25675 0.49609,-0.49609 -0.96173,-3.55822 v 0 l -1.80073,-1.66042 -1.12252,-0.35079 -0.51451,0.0702"
         id="path3060530" />
    </g>
  </g>
</svg>
