<?xml version="1.0" encoding="UTF-8" standalone="no"?>
<!-- Created with Inkscape (http://www.inkscape.org/) -->

<svg
   width="64.558327mm"
   height="313.53125mm"
   viewBox="0 0 64.558327 313.53125"
   version="1.1"
   id="svg5"
   inkscape:version="1.1 (c68e22c387, 2021-05-23)"
   sodipodi:docname="tree.svg"
   xmlns:inkscape="http://www.inkscape.org/namespaces/inkscape"
   xmlns:sodipodi="http://sodipodi.sourceforge.net/DTD/sodipodi-0.dtd"
   xmlns="http://www.w3.org/2000/svg"
   xmlns:svg="http://www.w3.org/2000/svg">
  <sodipodi:namedview
     id="namedview7"
     pagecolor="#ffffff"
     bordercolor="#666666"
     borderopacity="1.0"
     inkscape:pageshadow="2"
     inkscape:pageopacity="0.0"
     inkscape:pagecheckerboard="0"
     inkscape:document-units="mm"
     showgrid="false"
     inkscape:zoom="0.66635802"
     inkscape:cx="68.281612"
     inkscape:cy="565.01158"
     inkscape:window-width="1920"
     inkscape:window-height="1017"
     inkscape:window-x="1912"
     inkscape:window-y="-8"
     inkscape:window-maximized="1"
     inkscape:current-layer="layer1" />
  <defs
     id="defs2" />
  <g
     inkscape:label="Layer 1"
     inkscape:groupmode="layer"
     id="layer1"
     transform="translate(-86.83848,32.48621)">
    <g
       id="g2291598"
       transform="translate(-217.43235,-562.97579)"
       style="display:inline">
      <path
         style="fill:#7e7057;fill-opacity:1;stroke:none;stroke-width:0.264583px;stroke-linecap:butt;stroke-linejoin:miter;stroke-opacity:1"
         d="m 331.25833,819.14999 -0.52917,-25.13542 1.85209,-32.54375 v -21.69583 l 0.79375,-13.49375 0.79375,-25.4 0.52916,-42.8625 -0.52916,-45.77291 1.85208,-44.97917 2.64583,-21.43125 0.26459,38.1 -0.52917,36.24792 -0.26458,26.19375 0.52916,28.31041 -0.52916,38.1 -1.32292,20.6375 1.32292,50.8 1.85208,35.98333 z"
         id="path2002424" />
      <path
         style="fill:#948459;fill-opacity:1;stroke:none;stroke-width:0.264583px;stroke-linecap:butt;stroke-linejoin:miter;stroke-opacity:1"
         d="m 331.25833,819.14999 -8.99583,5.02708 -7.40834,2.38125 13.22917,2.38125 10.58333,1.85209 17.19792,-5.02709 1.32292,-5.02708 -17.19792,-0.52919 -8.73125,-1.05831"
         id="path2009557" />
      <path
         style="fill:#6e7547;fill-opacity:1;stroke:none;stroke-width:0.264583px;stroke-linecap:butt;stroke-linejoin:miter;stroke-opacity:1"
         d="m 314.85416,826.5583 -9.26041,3.70419 -1.32292,9.26042 8.73125,4.23333 24.34167,0.26458 23.01875,-1.32291 8.46666,-3.43959 v -11.90625 l -11.64166,-6.61458 -1.32292,5.02706 -17.19792,5.02711 -23.8125,-4.23336"
         id="path2012829" />
      <path
         style="fill:#5f5f3c;fill-opacity:1;stroke:none;stroke-width:0.264583px;stroke-linecap:butt;stroke-linejoin:miter;stroke-opacity:1"
         d="m 338.40208,530.48958 -7.01146,15.47812 -3.96875,9.525 5.55625,-1.19062 3.96875,1.85208 5.82083,-0.66146 6.35,-0.52917 6.61459,-0.13229 z"
         id="path2033138" />
      <path
         style="fill:#5d5a42;fill-opacity:1;stroke:none;stroke-width:0.264583px;stroke-linecap:butt;stroke-linejoin:miter;stroke-opacity:1"
         d="m 336.94687,556.15416 -9.65729,11.64167 3.43958,2.77812 10.05417,1.38906 11.37708,-1.32291 -7.67291,-11.31094 -7.54063,-3.175"
         id="path2047767" />
      <path
         style="fill:#53502b;fill-opacity:1;stroke:none;stroke-width:0.264583px;stroke-linecap:butt;stroke-linejoin:miter;stroke-opacity:1"
         d="m 336.94687,556.15416 -9.92187,3.20807 -4.00183,3.14193 7.01146,0.69453 1.02526,0.0331 z"
         id="path2060289" />
      <path
         style="fill:#63633c;fill-opacity:1;stroke:none;stroke-width:0.264583px;stroke-linecap:butt;stroke-linejoin:miter;stroke-opacity:1"
         d="m 353.0597,554.88159 -0.35078,3.22728 -4.46675,6.7586 -3.75467,-5.53831 -5.69331,-2.3662 -0.0468,-1.02899 10.12619,-0.95882 z"
         id="path2068386" />
      <path
         style="fill:#7e7057;fill-opacity:1;stroke:none;stroke-width:0.264583px;stroke-linecap:butt;stroke-linejoin:miter;stroke-opacity:1"
         d="m 330.72916,794.01455 -9.0302,-3.00366 -11.22532,2.15151 -2.99341,2.05799 -1.029,-1.30964 3.46115,-2.15151 11.41241,-2.61924 9.5649,3.0168 z"
         id="path2084119" />
      <path
         style="fill:#7e7057;fill-opacity:1;stroke:none;stroke-width:0.264583px;stroke-linecap:butt;stroke-linejoin:miter;stroke-opacity:1"
         d="m 336.81458,733.42499 9.92187,0.52917 9.6573,6.87916 0.79375,-1.4552 -8.73125,-5.95313 -11.50938,-1.05833 z"
         id="path2099360" />
      <path
         style="fill:#7e7057;fill-opacity:1;stroke:none;stroke-width:0.264583px;stroke-linecap:butt;stroke-linejoin:miter;stroke-opacity:1"
         d="m 332.58125,761.76848 -0.1323,1.98437 -7.14375,-1.75286 -6.74687,3.70417 -0.79375,-1.32292 7.9375,-3.83646 z"
         id="path2118978" />
      <path
         style="fill:#7e7057;fill-opacity:1;stroke:none;stroke-width:0.264583px;stroke-linecap:butt;stroke-linejoin:miter;stroke-opacity:1"
         d="m 333.70572,711.72916 0.16537,-2.4474 -6.18464,-0.33073 -9.92187,6.74688 0.79375,0.92604 9.39271,-6.35 z"
         id="path2127866" />
      <path
         style="fill:#7e7057;fill-opacity:1;stroke:none;stroke-width:0.264583px;stroke-linecap:butt;stroke-linejoin:miter;stroke-opacity:1"
         d="m 337.97568,772.76975 -0.0936,-1.02899 8.65285,0.42095 7.15616,4.39658 -0.60804,0.70157 -6.54812,-4.44336 z"
         id="path2146019" />
      <path
         style="fill:#7e7057;fill-opacity:1;stroke:none;stroke-width:0.264583px;stroke-linecap:butt;stroke-linejoin:miter;stroke-opacity:1"
         d="m 338.56033,689.63222 -0.11692,-0.7016 7.48352,-1.19269 11.41244,3.74179 -0.56129,1.87087 -10.47694,-4.30302 z"
         id="path2156613" />
      <path
         style="fill:#585b3c;fill-opacity:1;stroke:none;stroke-width:0.264583px;stroke-linecap:butt;stroke-linejoin:miter;stroke-opacity:1"
         d="m 335.82416,573.8945 -11.69304,12.06719 5.70621,6.17395 7.48353,2.24504 10.9447,-2.3386 6.08036,-8.79316 -11.59949,-7.95126 -3.92885,-1.49672 z"
         id="path2171314" />
      <path
         style="fill:#414725;fill-opacity:1;stroke:none;stroke-width:0.308494px;stroke-linecap:butt;stroke-linejoin:miter;stroke-opacity:1"
         d="m 345.28959,592.04208 11.25465,10.9447 -33.25527,1.30961 -3.05208,-12.16075 10.17367,2.24504 14.87903,-2.3386"
         id="path2179812" />
      <path
         style="fill:#7e7057;fill-opacity:1;stroke:none;stroke-width:0.264583px;stroke-linecap:butt;stroke-linejoin:miter;stroke-opacity:1"
         d="m 333.27828,678.02142 -0.0233,0.77173 -7.81095,-1.28622 -12.62848,3.83532 -0.84191,-1.6838 13.47039,-3.55468 z"
         id="path2205543" />
      <path
         style="fill:#4f532d;fill-opacity:1;stroke:none;stroke-width:0.264583px;stroke-linecap:butt;stroke-linejoin:miter;stroke-opacity:1"
         d="m 322.63762,671.66041 -6.03361,-3.32082 -5.33202,5.51911 -1.30963,7.99803 14.07843,-0.93543 z"
         id="path2210475" />
      <path
         style="fill:#5e6041;fill-opacity:1;stroke:none;stroke-width:0.264583px;stroke-linecap:butt;stroke-linejoin:miter;stroke-opacity:1"
         d="m 326.68341,676.361 -2.85311,-4.58367 5.40219,-1.12252 6.24408,4.88767 0.30404,8.91011 -9.61168,2.47893 z"
         id="path2229615" />
      <path
         style="fill:#7e7057;fill-opacity:1;stroke:none;stroke-width:0.264583px;stroke-linecap:butt;stroke-linejoin:miter;stroke-opacity:1"
         d="m 338.4668,617.2523 v 1.14591 l 7.13274,-0.58465 3.41437,1.91765 0.14031,-0.51449 -3.27404,-2.0112 z"
         id="path2238786" />
      <path
         style="fill:#545c39;fill-opacity:1;stroke:none;stroke-width:0.264583px;stroke-linecap:butt;stroke-linejoin:miter;stroke-opacity:1"
         d="m 336.17494,567.34638 -26.16901,9.26089 -5.42557,7.48353 7.29644,-5.42557 19.83142,-3.74176 7.10936,-1.12253 22.82481,7.29644 4.30305,-3.55467 -14.21874,-4.49014 -15.34128,-6.36101 z"
         id="path2255316" />
      <path
         style="fill:#545c39;fill-opacity:1;stroke:none;stroke-width:0.264583px;stroke-linecap:butt;stroke-linejoin:miter;stroke-opacity:1"
         d="m 336.13965,600.00303 -26.16901,9.26089 -5.42557,7.48353 7.29644,-5.42557 19.83142,-3.74176 7.10936,-1.12253 22.82481,7.29644 4.30305,-3.55467 -14.21874,-4.49014 -15.34128,-6.36101 z"
         id="path2275354" />
      <path
         style="fill:#535638;fill-opacity:1;stroke:none;stroke-width:0.264583px;stroke-linecap:butt;stroke-linejoin:miter;stroke-opacity:1"
         d="m 335.35937,621.37395 -29.36875,3.57188 -1.19062,5.95312 4.6302,-2.24896 25.13542,-2.11666 7.9375,1.05833 22.62188,8.59896 0.26458,-8.59896 -20.90208,-6.48229 z"
         id="path2275389" />
      <path
         style="fill:#5d5a42;fill-opacity:1;stroke:none;stroke-width:0.264583px;stroke-linecap:butt;stroke-linejoin:miter;stroke-opacity:1"
         d="m 334.63034,601.44345 -9.65729,11.64167 3.43958,2.77812 10.05417,1.38906 11.37708,-1.32291 -7.67291,-11.31094 -7.54063,-3.175"
         id="path2287095" />
      <path
         style="fill:#5a6444;fill-opacity:1;stroke:none;stroke-width:0.264583px;stroke-linecap:butt;stroke-linejoin:miter;stroke-opacity:1"
         d="m 336.28541,627.45937 -26.72292,5.42396 -3.43958,5.55625 1.32292,1.19062 3.175,-4.89479 21.29896,-3.175 13.36145,0.79375 21.43125,10.84792 -0.79375,-5.55625 -3.43958,0.13229 -19.97604,-10.18646 z"
         id="path2287130" />
      <path
         style="fill:#5e6041;fill-opacity:1;stroke:none;stroke-width:0.264583px;stroke-linecap:butt;stroke-linejoin:miter;stroke-opacity:1"
         d="m 351.30936,738.00866 -2.85311,-4.58367 5.40219,-1.12252 6.24408,4.88767 0.30404,8.91011 -9.61168,2.47893 z"
         id="path2291541" />
      <path
         style="fill:#4f532d;fill-opacity:1;stroke:none;stroke-width:0.264583px;stroke-linecap:butt;stroke-linejoin:miter;stroke-opacity:1"
         d="m 325.70208,760.54478 -6.03361,-3.32082 -5.33202,5.51911 -1.30963,7.99803 14.07843,-0.93543 z"
         id="path2291543" />
      <path
         style="fill:#535638;fill-opacity:1;stroke:none;stroke-width:0.264583px;stroke-linecap:butt;stroke-linejoin:miter;stroke-opacity:1"
         d="m 334.8302,660.79687 -29.36875,3.57188 -1.19062,5.95312 4.6302,-2.24896 25.13542,-2.11666 7.9375,1.05833 22.62188,8.59896 0.26458,-8.59896 -20.90208,-6.48229 z"
         id="path2291545" />
      <path
         style="fill:#545c39;fill-opacity:1;stroke:none;stroke-width:0.264583px;stroke-linecap:butt;stroke-linejoin:miter;stroke-opacity:1"
         d="m 337.05603,647.62433 -26.16901,9.26089 -5.42557,7.48353 7.29644,-5.42557 19.83142,-3.74176 7.10936,-1.12253 22.82481,7.29644 4.30305,-3.55467 -14.21874,-4.49014 -15.34128,-6.36101 z"
         id="path2291547" />
      <path
         style="fill:#414725;fill-opacity:1;stroke:none;stroke-width:0.308494px;stroke-linecap:butt;stroke-linejoin:miter;stroke-opacity:1"
         d="m 345.28124,632.35416 11.25465,10.9447 -33.25527,1.30961 -3.05208,-12.16075 10.17367,2.24504 14.87903,-2.3386"
         id="path2291549" />
    </g>
  </g>
</svg>
